<?xml version="1.0" encoding="UTF-8" standalone="no" ?>
<!DOCTYPE svg PUBLIC "-//W3C//DTD SVG 1.1//EN" "http://www.w3.org/Graphics/SVG/1.1/DTD/svg11.dtd">
<svg xmlns="http://www.w3.org/2000/svg" xmlns:xlink="http://www.w3.org/1999/xlink" version="1.1" width="74.267" height="88.9194" viewBox="0 0 74.267 88.9194" xml:space="preserve">
<desc>Created with Fabric.js 5.3.0</desc>
<defs>
</defs>
<g transform="matrix(1 0 0 1 37.4843224981 69.2865146965)" id="zP2B_G1GsWWTqq9pfiMGA"  >
<path style="stroke: rgb(173,255,47); stroke-width: 2; stroke-dasharray: none; stroke-linecap: butt; stroke-dashoffset: 0; stroke-linejoin: miter; stroke-miterlimit: 4; fill: rgb(255,255,255); fill-opacity: 0; fill-rule: nonzero; opacity: 1;" vector-effect="non-scaling-stroke"  transform=" translate(0.000005, 0)" d="M 15.78192 13.83708 C 15.78192 13.83708 3.5868 -48.42978 -15.78193 13.83708" stroke-linecap="round" />
</g>
<g transform="matrix(1 0 0 1 17.7231659164 58.0768490704)" id="D6cXFIOcgBiOKaIvn4zH5"  >
<path style="stroke: rgb(173,255,47); stroke-width: 2; stroke-dasharray: none; stroke-linecap: butt; stroke-dashoffset: 0; stroke-linejoin: miter; stroke-miterlimit: 4; fill: rgb(255,255,255); fill-opacity: 0; fill-rule: nonzero; opacity: 1;" vector-effect="non-scaling-stroke"  transform=" translate(0.0000044413, 0.0000072222)" d="M 4.08543 25.01205 C 4.08543 25.01205 1.4282699999999995 37.48775 1.0070099999999997 25.01205 C 0.5857499999999998 12.536349999999999 5.86767 6.333499999999997 5.86767 6.333499999999997 C 5.86767 6.333499999999997 10.27731 -0.8715800000000025 12.835450000000002 -6.4464900000000025 C 15.393590000000001 -12.021400000000003 -8.745949999999997 -5.364820000000003 -11.025019999999998 -10.533020000000002 C -13.304089999999999 -15.701220000000003 -0.20203999999999844 -12.617510000000003 -13.025019999999998 -30.556820000000002" stroke-linecap="round" />
</g>
<g transform="matrix(1 0 0 1 21.202399973 35.9208024446)" id="tpDrTqXCkItv8yAeIzpGX"  >
<path style="stroke: rgb(173,255,47); stroke-width: 2; stroke-dasharray: none; stroke-linecap: butt; stroke-dashoffset: 0; stroke-linejoin: miter; stroke-miterlimit: 4; fill: rgb(255,255,255); fill-opacity: 0; fill-rule: nonzero; opacity: 1;" vector-effect="non-scaling-stroke"  transform=" translate(-0.000005, 0)" d="M -16.34277 -8.19294 C -16.34277 -8.19294 -3.133790000000001 -7.83941 16.342779999999998 8.19294" stroke-linecap="round" />
</g>
<g transform="matrix(1 0 0 1 53.708184262 37.1183856676)" id="mIj5diH3AZWQBB5GG1wRq"  >
<path style="stroke: rgb(173,255,47); stroke-width: 2; stroke-dasharray: none; stroke-linecap: butt; stroke-dashoffset: 0; stroke-linejoin: miter; stroke-miterlimit: 4; fill: rgb(255,255,255); fill-opacity: 0; fill-rule: nonzero; opacity: 1;" vector-effect="non-scaling-stroke"  transform=" translate(9.635e-7, 0.0000018994)" d="M -16.16301 6.92378 C -16.16301 6.92378 10.80911 -10.98563 15.338719999999999 -9.243469999999999 C 19.86834 -7.501309999999998 3.7596999999999987 -0.28571999999999775 14.363109999999999 9.3628" stroke-linecap="round" />
</g>
<g transform="matrix(1 0 0 1 56.6293531282 48.853743675)" id="XlJZz3Muowkx9QkS9cMyE"  >
<path style="stroke: rgb(173,255,47); stroke-width: 2; stroke-dasharray: none; stroke-linecap: butt; stroke-dashoffset: 0; stroke-linejoin: miter; stroke-miterlimit: 4; fill: rgb(255,255,255); fill-opacity: 0; fill-rule: nonzero; opacity: 1;" vector-effect="non-scaling-stroke"  transform=" translate(0.000005, 0.0000025565)" d="M 11.31718 -2.42073 C 11.31718 -2.42073 -2.1574600000000004 -2.72353 -11.31719 2.42408" stroke-linecap="round" />
</g>
<g transform="matrix(1 0 0 1 51.3045734432 69.0055093958)" id="4Dcw-ffhO65SUoSoTMkb7"  >
<path style="stroke: rgb(173,255,47); stroke-width: 2; stroke-dasharray: none; stroke-linecap: butt; stroke-dashoffset: 0; stroke-linejoin: miter; stroke-miterlimit: 4; fill: rgb(255,255,255); fill-opacity: 0; fill-rule: nonzero; opacity: 1;" vector-effect="non-scaling-stroke"  transform=" translate(0.0000024725, 9.939e-7)" d="M -5.97756 -17.65198 C -5.97756 -17.65198 7.04288 2.7600300000000004 5.90738 12.82816 C 4.7718799999999995 22.89629 1.9439799999999998 14.079260000000001 1.9439799999999998 14.079260000000001" stroke-linecap="round" />
</g>
<g transform="matrix(1 0 0 1 72.2856372489 3.668597908)" id="kL80sEhINfH6iNI1md311"  >
<path style="stroke: rgb(173,255,47); stroke-width: 2; stroke-dasharray: none; stroke-linecap: butt; stroke-dashoffset: 0; stroke-linejoin: miter; stroke-miterlimit: 4; fill: rgb(255,255,255); fill-opacity: 0; fill-rule: nonzero; opacity: 1;" vector-effect="non-scaling-stroke"  transform=" translate(0, 0)" d="M 0 0" stroke-linecap="round" />
</g>
<g transform="matrix(1 0 0 1 56.6293531282 16.9778908849)" id="7d9bnptm6hs-jp1eIkU5P"  >
<path style="stroke: rgb(173,255,47); stroke-width: 2; stroke-dasharray: none; stroke-linecap: butt; stroke-dashoffset: 0; stroke-linejoin: miter; stroke-miterlimit: 4; fill: rgb(255,255,255); fill-opacity: 0; fill-rule: nonzero; opacity: 1;" vector-effect="non-scaling-stroke"  transform=" translate(0.0000012261, -0.0000022866)" d="M 5.4652 -4.28277 C 5.4652 -4.28277 24.21971 -25.85983 14.613970000000002 -4.28277 C 5.0082400000000025 17.29429 -12.240889999999997 13.638380000000002 -12.240889999999997 13.638380000000002 C -12.240889999999997 13.638380000000002 -25.144119999999997 3.817590000000001 -9.946979999999996 -2.418969999999998" stroke-linecap="round" />
</g>
<g transform="matrix(1 0 0 1 54.5803165655 13.8555696714)" id="f77sr6k7y17dytOgQGvOr"  >
<path style="stroke: rgb(173,255,47); stroke-width: 2; stroke-dasharray: none; stroke-linecap: butt; stroke-dashoffset: 0; stroke-linejoin: miter; stroke-miterlimit: 4; fill: rgb(255,255,255); fill-opacity: 0; fill-rule: nonzero; opacity: 1;" vector-effect="non-scaling-stroke"  transform=" translate(-0.000005, -0.0000028806)" d="M -7.70609 0.84672 C -7.70609 0.84672 2.4731199999999998 2.99726 7.706100000000001 -1.3755000000000002" stroke-linecap="round" />
</g>
<g transform="matrix(-1.0468818263 0 0 1.0177301554 18.8797298674 14.8328253863)" id="pu5udFCewWDJJkNTXt5JM"  >
<path style="stroke: rgb(173,255,47); stroke-width: 2; stroke-dasharray: none; stroke-linecap: butt; stroke-dashoffset: 0; stroke-linejoin: miter; stroke-miterlimit: 4; fill: rgb(255,255,255); fill-opacity: 0; fill-rule: nonzero; opacity: 1;" vector-effect="non-scaling-stroke"  transform=" translate(0.0000012261, -0.0000022866)" d="M 5.4652 -4.28277 C 5.4652 -4.28277 24.21971 -25.85983 14.613970000000002 -4.28277 C 5.0082400000000025 17.29429 -12.240889999999997 13.638380000000002 -12.240889999999997 13.638380000000002 C -12.240889999999997 13.638380000000002 -25.144119999999997 3.817590000000001 -9.946979999999996 -2.418969999999998" stroke-linecap="round" />
</g>
<g transform="matrix(-1.0468818263 0 0 1.0177301554 21.0248290063 11.6551449326)" id="_r6X1F0V2pgnbCNVFzzEP"  >
<path style="stroke: rgb(173,255,47); stroke-width: 2; stroke-dasharray: none; stroke-linecap: butt; stroke-dashoffset: 0; stroke-linejoin: miter; stroke-miterlimit: 4; fill: rgb(255,255,255); fill-opacity: 0; fill-rule: nonzero; opacity: 1;" vector-effect="non-scaling-stroke"  transform=" translate(-0.000005, -0.0000028806)" d="M -7.70609 0.84672 C -7.70609 0.84672 2.4731199999999998 2.99726 7.706100000000001 -1.3755000000000002" stroke-linecap="round" />
</g>
<g transform="matrix(1 0 0 1 58.7142860808 58.7271998754)" id="6CPeDt_yJOmUpzS0nRu_0"  >
<path style="stroke: rgb(173,255,47); stroke-width: 2; stroke-dasharray: none; stroke-linecap: butt; stroke-dashoffset: 0; stroke-linejoin: miter; stroke-miterlimit: 4; fill: none; fill-rule: nonzero; opacity: 1;" vector-effect="non-scaling-stroke"  transform=" translate(-5.79635, -5.79635)" d="M 5.79635 0 C 8.995940000000001 0 11.5927 2.59676 11.5927 5.79635 C 11.5927 8.995940000000001 8.995940000000001 11.5927 5.79635 11.5927 C 2.59676 11.5927 0 8.995940000000001 0 5.79635 C 0 2.59676 2.59676 0 5.79635 0 z" stroke-linecap="round" />
</g>
<g transform="matrix(1 0 0 1 37.4843224981 73.6665412965)" id="BFnRun7l12FIl6QDqTLA0"  >
<path style="stroke: rgb(173,255,47); stroke-width: 2; stroke-dasharray: none; stroke-linecap: butt; stroke-dashoffset: 0; stroke-linejoin: miter; stroke-miterlimit: 4; fill: none; fill-rule: nonzero; opacity: 1;" vector-effect="non-scaling-stroke"  transform=" translate(-5.79635, -5.79635)" d="M 5.79635 0 C 8.995940000000001 0 11.5927 2.59676 11.5927 5.79635 C 11.5927 8.995940000000001 8.995940000000001 11.5927 5.79635 11.5927 C 2.59676 11.5927 0 8.995940000000001 0 5.79635 C 0 2.59676 2.59676 0 5.79635 0 z" stroke-linecap="round" />
</g>
<g transform="matrix(1 0 0 1 14.1076766523 59.2735075886)" id="eAEjONVBHeGfKiMRes4R4"  >
<path style="stroke: rgb(173,255,47); stroke-width: 2; stroke-dasharray: none; stroke-linecap: butt; stroke-dashoffset: 0; stroke-linejoin: miter; stroke-miterlimit: 4; fill: none; fill-rule: nonzero; opacity: 1;" vector-effect="non-scaling-stroke"  transform=" translate(-5.79635, -5.79635)" d="M 5.79635 0 C 8.995940000000001 0 11.5927 2.59676 11.5927 5.79635 C 11.5927 8.995940000000001 8.995940000000001 11.5927 5.79635 11.5927 C 2.59676 11.5927 0 8.995940000000001 0 5.79635 C 0 2.59676 2.59676 0 5.79635 0 z" stroke-linecap="round" />
</g>
</svg>