<?xml version="1.0" encoding="UTF-8" standalone="no" ?>
<!DOCTYPE svg PUBLIC "-//W3C//DTD SVG 1.1//EN" "http://www.w3.org/Graphics/SVG/1.1/DTD/svg11.dtd">
<svg xmlns="http://www.w3.org/2000/svg" xmlns:xlink="http://www.w3.org/1999/xlink" version="1.1" width="69.1877" height="92.2053" viewBox="0 0 69.1877 92.2053" xml:space="preserve">
<desc>Created with Fabric.js 5.3.0</desc>
<defs>
</defs>
<g transform="matrix(1.263201648 0 0 1.2682978404 34.1628590774 69.1929933181)" id="PcGb3cAiPo2y7YaiJ-7eW"  >
<path style="stroke: rgb(173,255,47); stroke-width: 2; stroke-dasharray: none; stroke-linecap: butt; stroke-dashoffset: 0; stroke-linejoin: miter; stroke-miterlimit: 4; fill: none; fill-rule: nonzero; opacity: 1;" vector-effect="non-scaling-stroke"  transform=" translate(0, 0)" d="M 0 -5.79635 C 3.19959 -5.79635 5.79635 -3.19959 5.79635 0 C 5.79635 3.19959 3.19959 5.79635 0 5.79635 C -3.19959 5.79635 -5.79635 3.19959 -5.79635 0 C -5.79635 -3.19959 -3.19959 -5.79635 0 -5.79635 z" stroke-linecap="round" />
</g>
<g transform="matrix(1 0 0 1 14.5988819182 66.7106328504)" id="uk8_jbiRjFZrj7cVTsRL6"  >
<path style="stroke: rgb(173,255,47); stroke-width: 2; stroke-dasharray: none; stroke-linecap: butt; stroke-dashoffset: 0; stroke-linejoin: miter; stroke-miterlimit: 4; fill: rgb(255,255,255); fill-opacity: 0; fill-rule: nonzero; opacity: 1;" vector-effect="non-scaling-stroke"  transform=" translate(0, 0.0000015972)" d="M 8.83091 6.85732 C 8.83091 6.85732 -1.3824100000000001 7.403 -8.83091 -6.86008" stroke-linecap="round" />
</g>
<g transform="matrix(1 0 0 1 17.8448923949 75.3147709283)" id="lW8dOn5ug8XwYA0JDmO02"  >
<path style="stroke: rgb(173,255,47); stroke-width: 2; stroke-dasharray: none; stroke-linecap: butt; stroke-dashoffset: 0; stroke-linejoin: miter; stroke-miterlimit: 4; fill: rgb(255,255,255); fill-opacity: 0; fill-rule: nonzero; opacity: 1;" vector-effect="non-scaling-stroke"  transform=" translate(0.0000027536, -0.0000054441)" d="M -12.02998 -15.04314 C -12.02998 -15.04314 -18.50998 -11.37046 -10.58998 4.549540000000002 C -2.6699800000000007 20.469540000000002 13.41002 15.756860000000001 14.450019999999999 6.9568600000000025 C 15.490019999999998 -1.8431399999999982 5.570019999999998 -1.7468099999999982 5.570019999999998 -1.7468099999999982" stroke-linecap="round" />
</g>
<g transform="matrix(-1.0618151438 0 0 1.0748401044 54.123253206 66.5025339435)" id="jDGbbpuLTTkZeznk2RePx"  >
<path style="stroke: rgb(173,255,47); stroke-width: 2; stroke-dasharray: none; stroke-linecap: butt; stroke-dashoffset: 0; stroke-linejoin: miter; stroke-miterlimit: 4; fill: rgb(255,255,255); fill-opacity: 0; fill-rule: nonzero; opacity: 1;" vector-effect="non-scaling-stroke"  transform=" translate(0, 0.0000015972)" d="M 8.83091 6.85732 C 8.83091 6.85732 -1.3824100000000001 7.403 -8.83091 -6.86008" stroke-linecap="round" />
</g>
<g transform="matrix(-1.0618151438 0 0 1.0748401044 50.676590125 75.7506066134)" id="IjktDfrhNe3nLUKHuTLkh"  >
<path style="stroke: rgb(173,255,47); stroke-width: 2; stroke-dasharray: none; stroke-linecap: butt; stroke-dashoffset: 0; stroke-linejoin: miter; stroke-miterlimit: 4; fill: rgb(255,255,255); fill-opacity: 0; fill-rule: nonzero; opacity: 1;" vector-effect="non-scaling-stroke"  transform=" translate(0.0000027536, -0.0000054441)" d="M -12.02998 -15.04314 C -12.02998 -15.04314 -18.50998 -11.37046 -10.58998 4.549540000000002 C -2.6699800000000007 20.469540000000002 13.41002 15.756860000000001 14.450019999999999 6.9568600000000025 C 15.490019999999998 -1.8431399999999982 5.570019999999998 -1.7468099999999982 5.570019999999998 -1.7468099999999982" stroke-linecap="round" />
</g>
<g transform="matrix(-1.0821525847 0 0 1 61.1159672958 10.7647944888)" id="PAjxmJuWNyv44T_KPigAH"  >
<path style="stroke: rgb(173,255,47); stroke-width: 2; stroke-dasharray: none; stroke-linecap: butt; stroke-dashoffset: 0; stroke-linejoin: miter; stroke-miterlimit: 4; fill: rgb(255,255,255); fill-opacity: 0; fill-rule: nonzero; opacity: 1;" vector-effect="non-scaling-stroke"  transform=" translate(-0.0000055024, 0)" d="M 2.64989 9.74729 C 2.64989 9.74729 6.53076 8.03249 -3.3970399999999996 -9.74729" stroke-linecap="round" />
</g>
<g transform="matrix(1 0 0 1 8.946750286 34.4484272822)" id="6anvEmmKdQgUcW2knydeg"  >
<path style="stroke: rgb(173,255,47); stroke-width: 2; stroke-dasharray: none; stroke-linecap: butt; stroke-dashoffset: 0; stroke-linejoin: miter; stroke-miterlimit: 4; fill: rgb(255,255,255); fill-opacity: 0; fill-rule: nonzero; opacity: 1;" vector-effect="non-scaling-stroke"  transform=" translate(0, 0)" d="M 0 0" stroke-linecap="round" />
</g>
<g transform="matrix(-1.0821525847 0 0 1 53.7247222941 16.9538711247)" id="rPu8IU1dpFBhJtM9AqehU"  >
<path style="stroke: rgb(173,255,47); stroke-width: 2; stroke-dasharray: none; stroke-linecap: butt; stroke-dashoffset: 0; stroke-linejoin: miter; stroke-miterlimit: 4; fill: rgb(255,255,255); fill-opacity: 0; fill-rule: nonzero; opacity: 1;" vector-effect="non-scaling-stroke"  transform=" translate(-0.0000065791, 0.0000032157)" d="M -10.38661 -16.22485 C -10.38661 -16.22485 6.433670000000001 -17.49213 10.0051 3.4756099999999996 C 13.57653 24.44335 -9.234529999999998 16.03321 -4.0502 3.4756099999999996" stroke-linecap="round" />
</g>
<g transform="matrix(1 0 0 1 15.5916210192 47.1451667336)" id="OS6DAQ2Nq1SSSVSoZI97C"  >
<path style="stroke: rgb(173,255,47); stroke-width: 2; stroke-dasharray: none; stroke-linecap: butt; stroke-dashoffset: 0; stroke-linejoin: miter; stroke-miterlimit: 4; fill: rgb(255,255,255); fill-opacity: 0; fill-rule: nonzero; opacity: 1;" vector-effect="non-scaling-stroke"  transform=" translate(0.0000053049, -0.0000024855)" d="M -6.60347 -12.95171 C -6.60347 -12.95171 -10.89963 -13.69461 -13.82468 -9.12423 C -16.74973 -4.553850000000001 -13.184830000000002 3.8556599999999985 -7.974590000000001 3.490029999999999 C -2.764350000000001 3.124399999999999 2.902919999999998 1.022019999999999 14.877329999999999 12.996429999999998" stroke-linecap="round" />
</g>
<g transform="matrix(1 0 0 1 7.7888061087 12.1814908144)" id="0t21FpLLaZ2GVCjABsoLk"  >
<path style="stroke: rgb(173,255,47); stroke-width: 2; stroke-dasharray: none; stroke-linecap: butt; stroke-dashoffset: 0; stroke-linejoin: miter; stroke-miterlimit: 4; fill: rgb(255,255,255); fill-opacity: 0; fill-rule: nonzero; opacity: 1;" vector-effect="non-scaling-stroke"  transform=" translate(-0.0000055024, 0)" d="M 2.64989 9.74729 C 2.64989 9.74729 6.53076 8.03249 -3.3970399999999996 -9.74729" stroke-linecap="round" />
</g>
<g transform="matrix(1 0 0 1 19.6385130489 47.0134665351)" id="DBJx28UaxZnwsNesp6kHh"  >
<path style="stroke: rgb(173,255,47); stroke-width: 2; stroke-dasharray: none; stroke-linecap: butt; stroke-dashoffset: 0; stroke-linejoin: miter; stroke-miterlimit: 4; fill: rgb(255,255,255); fill-opacity: 0; fill-rule: nonzero; opacity: 1;" vector-effect="non-scaling-stroke"  transform=" translate(-0.000005, 0)" d="M 10.96755 12.82001 C 10.96755 12.82001 6.690569999999999 -11.25458 -10.96754 -12.82001" stroke-linecap="round" />
</g>
<g transform="matrix(1 0 0 1 14.6189381125 18.3705674503)" id="1MKKufSaKzHR6WdpW7Lx3"  >
<path style="stroke: rgb(173,255,47); stroke-width: 2; stroke-dasharray: none; stroke-linecap: butt; stroke-dashoffset: 0; stroke-linejoin: miter; stroke-miterlimit: 4; fill: rgb(255,255,255); fill-opacity: 0; fill-rule: nonzero; opacity: 1;" vector-effect="non-scaling-stroke"  transform=" translate(-0.0000065791, 0.0000032157)" d="M -10.38661 -16.22485 C -10.38661 -16.22485 6.433670000000001 -17.49213 10.0051 3.4756099999999996 C 13.57653 24.44335 -9.234529999999998 16.03321 -4.0502 3.4756099999999996" stroke-linecap="round" />
</g>
<g transform="matrix(-1.0325834002 0 0 0.942208275 53.5398683082 46.693768832)" id="wLF2QIsy9S5g7oKXZ8Z0t"  >
<path style="stroke: rgb(173,255,47); stroke-width: 2; stroke-dasharray: none; stroke-linecap: butt; stroke-dashoffset: 0; stroke-linejoin: miter; stroke-miterlimit: 4; fill: rgb(255,255,255); fill-opacity: 0; fill-rule: nonzero; opacity: 1;" vector-effect="non-scaling-stroke"  transform=" translate(0.0000053049, -0.0000024855)" d="M -6.60347 -12.95171 C -6.60347 -12.95171 -10.89963 -13.69461 -13.82468 -9.12423 C -16.74973 -4.553850000000001 -13.184830000000002 3.8556599999999985 -7.974590000000001 3.490029999999999 C -2.764350000000001 3.124399999999999 2.902919999999998 1.022019999999999 14.877329999999999 12.996429999999998" stroke-linecap="round" />
</g>
<g transform="matrix(1 0 0 1 34.417331896 44.8286991307)" id="Et6EmgvLI3Vqo-7lvuB4v"  >
<path style="stroke: rgb(173,255,47); stroke-width: 2; stroke-dasharray: none; stroke-linecap: butt; stroke-dashoffset: 0; stroke-linejoin: miter; stroke-miterlimit: 4; fill: rgb(255,255,255); fill-opacity: 0; fill-rule: nonzero; opacity: 1;" vector-effect="non-scaling-stroke"  transform=" translate(2.704e-7, -0.0000035661)" d="M -0.25447 15.8129 C -0.25447 15.8129 -17.441470000000002 -17.19032 0.33487 -15.768219999999998 C 18.11121 -14.346109999999998 -2.01148 9.603780000000002 -0.25447 14.942930000000002" stroke-linecap="round" />
</g>
<g transform="matrix(-1.0325834002 0 0 0.942208275 49.3611147758 46.5696798152)" id="E9mYo47-Bjl3YFGCuxbYi"  >
<path style="stroke: rgb(173,255,47); stroke-width: 2; stroke-dasharray: none; stroke-linecap: butt; stroke-dashoffset: 0; stroke-linejoin: miter; stroke-miterlimit: 4; fill: rgb(255,255,255); fill-opacity: 0; fill-rule: nonzero; opacity: 1;" vector-effect="non-scaling-stroke"  transform=" translate(-0.000005, 0)" d="M 10.96755 12.82001 C 10.96755 12.82001 6.690569999999999 -11.25458 -10.96754 -12.82001" stroke-linecap="round" />
</g>
</svg>