<?xml version="1.0" encoding="UTF-8" standalone="no" ?>
<!DOCTYPE svg PUBLIC "-//W3C//DTD SVG 1.1//EN" "http://www.w3.org/Graphics/SVG/1.1/DTD/svg11.dtd">
<svg xmlns="http://www.w3.org/2000/svg" xmlns:xlink="http://www.w3.org/1999/xlink" version="1.1" width="55.7842" height="87.4793" viewBox="0 0 55.7842 87.4793" xml:space="preserve">
<desc>Created with Fabric.js 5.3.0</desc>
<defs>
</defs>
<g transform="matrix(0.8259867519 0 0 0.8293190682 29.1872240917 44.6367171328)" id="1cB31jFGpClfQkm6AdP_e"  >
<path style="stroke: rgb(173,255,47); stroke-width: 2; stroke-dasharray: none; stroke-linecap: butt; stroke-dashoffset: 0; stroke-linejoin: miter; stroke-miterlimit: 4; fill: none; fill-rule: nonzero; opacity: 1;" vector-effect="non-scaling-stroke"  transform=" translate(0, 0)" d="M 0 -5.79635 C 3.19959 -5.79635 5.79635 -3.19959 5.79635 0 C 5.79635 3.19959 3.19959 5.79635 0 5.79635 C -3.19959 5.79635 -5.79635 3.19959 -5.79635 0 C -5.79635 -3.19959 -3.19959 -5.79635 0 -5.79635 z" stroke-linecap="round" />
</g>
<g transform="matrix(1.0759770013 0 0 1.0558128522 12.5580461811 33.4416761223)" id="7pDV36WGGUJd2-M1tEYz3"  >
<path style="stroke: rgb(173,255,47); stroke-width: 2; stroke-dasharray: none; stroke-linecap: butt; stroke-dashoffset: 0; stroke-linejoin: miter; stroke-miterlimit: 4; fill: rgb(255,255,255); fill-opacity: 0; fill-rule: nonzero; opacity: 1;" vector-effect="non-scaling-stroke"  transform=" translate(0.0000037077, 0)" d="M -9.67041 23.29873 C -9.67041 23.29873 -16.82151 -2.931000000000001 10.514129999999998 -23.29873" stroke-linecap="round" />
</g>
<g transform="matrix(1 0 0 1 34.4880696907 3.8205130827)" id="vYZdb24A6DmouVvjnT3Uh"  >
<path style="stroke: rgb(173,255,47); stroke-width: 2; stroke-dasharray: none; stroke-linecap: butt; stroke-dashoffset: 0; stroke-linejoin: miter; stroke-miterlimit: 4; fill: rgb(255,255,255); fill-opacity: 0; fill-rule: nonzero; opacity: 1;" vector-effect="non-scaling-stroke"  transform=" translate(0, 0)" d="M 0 0" stroke-linecap="round" />
</g>
<g transform="matrix(1.0759770013 0 0 1.1127355915 22.3294798647 4.6956119491)" id="Obtatr24sT7bOuLkt7Znu"  >
<path style="stroke: rgb(173,255,47); stroke-width: 2; stroke-dasharray: none; stroke-linecap: butt; stroke-dashoffset: 0; stroke-linejoin: miter; stroke-miterlimit: 4; fill: rgb(255,255,255); fill-opacity: 0; fill-rule: nonzero; opacity: 1;" vector-effect="non-scaling-stroke"  transform=" translate(0.0000035681, -0.0000025781)" d="M 1.93268 3.57261 C 1.93268 3.57261 -17.047839999999997 -10.021139999999999 5.530279999999999 0.29136000000000006" stroke-linecap="round" />
</g>
<g transform="matrix(2.3034791213 0 0 -1.8390421818 29.8540944025 12.4937682399)" id="7ooHntcCLm6N6LL_aSn2F"  >
<path style="stroke: rgb(173,255,47); stroke-width: 2; stroke-dasharray: none; stroke-linecap: butt; stroke-dashoffset: 0; stroke-linejoin: miter; stroke-miterlimit: 4; fill: rgb(255,255,255); fill-opacity: 0; fill-rule: nonzero; opacity: 1;" vector-effect="non-scaling-stroke"  transform=" translate(0, -0.0000022222)" d="M -0.8366 -0.23412 C -0.8366 -0.23412 -0.042910000000000004 0.81943 0.8366 -0.23412" stroke-linecap="round" />
</g>
<g transform="matrix(1.0759770013 0 0 1.1127355915 34.8091238391 4.8392235025)" id="ozC-J28ZXb5X4JUT7oWFD"  >
<path style="stroke: rgb(173,255,47); stroke-width: 2; stroke-dasharray: none; stroke-linecap: butt; stroke-dashoffset: 0; stroke-linejoin: miter; stroke-miterlimit: 4; fill: rgb(255,255,255); fill-opacity: 0; fill-rule: nonzero; opacity: 1;" vector-effect="non-scaling-stroke"  transform=" translate(-0.0000015124, -0.0000012834)" d="M -1.23356 3.09776 C -1.23356 3.09776 13.80529 -8.71171 -4.56319 0.2783000000000002" stroke-linecap="round" />
</g>
<g transform="matrix(1.0759770013 0 0 1.1127355915 29.1872240917 5.0997401747)" id="BqEYBrWrZSfas-3pP8lW2"  >
<path style="stroke: rgb(173,255,47); stroke-width: 2; stroke-dasharray: none; stroke-linecap: butt; stroke-dashoffset: 0; stroke-linejoin: miter; stroke-miterlimit: 4; fill: rgb(255,255,255); fill-opacity: 0; fill-rule: nonzero; opacity: 1;" vector-effect="non-scaling-stroke"  transform=" translate(0, -0.0000022222)" d="M -0.8366 -0.23412 C -0.8366 -0.23412 -0.042910000000000004 0.81943 0.8366 -0.23412" stroke-linecap="round" />
</g>
<g transform="matrix(1.0386235635 0 0 1.0741060486 15.1923512377 35.6407810579)" id="f28X8zbtZRvpDLGCgs8uv"  >
<path style="stroke: rgb(173,255,47); stroke-width: 2; stroke-dasharray: none; stroke-linecap: butt; stroke-dashoffset: 0; stroke-linejoin: miter; stroke-miterlimit: 4; fill: rgb(255,255,255); fill-opacity: 0; fill-rule: nonzero; opacity: 1;" vector-effect="non-scaling-stroke"  transform=" translate(0.000005, 0)" d="M -12.57028 21.35459 C -12.57028 21.35459 -7.859170000000001 10.196700000000002 3.3408300000000004 18.818920000000002 C 14.54083 27.441140000000004 -14.128239999999998 9.137410000000003 12.57027 -21.354589999999998" stroke-linecap="round" />
</g>
<g transform="matrix(-0.8960213339 0 0 0.864033934 35.8581027056 64.6901561756)" id="b5w_08mwz3rcxwB-6-wsV"  >
<path style="stroke: rgb(173,255,47); stroke-width: 2; stroke-dasharray: none; stroke-linecap: butt; stroke-dashoffset: 0; stroke-linejoin: miter; stroke-miterlimit: 4; fill: rgb(255,255,255); fill-opacity: 0; fill-rule: nonzero; opacity: 1;" vector-effect="non-scaling-stroke"  transform=" translate(0.000005, -0.000005)" d="M -3.82324 7.37339 C -3.82324 7.37339 3.47567 2.6564099999999993 3.8232299999999997 -7.37338" stroke-linecap="round" />
</g>
<g transform="matrix(-1.0178748678 0 0 1.1051762255 44.7921060038 33.8780622862)" id="kioEzirzQnww-IpPph3Wu"  >
<path style="stroke: rgb(173,255,47); stroke-width: 2; stroke-dasharray: none; stroke-linecap: butt; stroke-dashoffset: 0; stroke-linejoin: miter; stroke-miterlimit: 4; fill: rgb(255,255,255); fill-opacity: 0; fill-rule: nonzero; opacity: 1;" vector-effect="non-scaling-stroke"  transform=" translate(0.0000037077, 0)" d="M -9.67041 23.29873 C -9.67041 23.29873 -16.82151 -2.931000000000001 10.514129999999998 -23.29873" stroke-linecap="round" />
</g>
<g transform="matrix(-0.8960213339 0 0 0.864033934 43.9270707772 67.482831186)" id="blHQN5NjhNCWTduXYxwoK"  >
<path style="stroke: rgb(173,255,47); stroke-width: 2; stroke-dasharray: none; stroke-linecap: butt; stroke-dashoffset: 0; stroke-linejoin: miter; stroke-miterlimit: 4; fill: rgb(255,255,255); fill-opacity: 0; fill-rule: nonzero; opacity: 1;" vector-effect="non-scaling-stroke"  transform=" translate(0.0000027427, -8.191e-7)" d="M 12.9209 -10.89931 C 12.9209 -10.89931 5.202999999999999 -2.37721 -4.311299999999999 -4.70589 C -13.8256 -7.03457 -12.89607 7.40709 -12.89607 7.40709 C -12.89607 7.40709 -9.16825 17.121000000000002 5.336070000000001 4.146940000000001" stroke-linecap="round" />
</g>
<g transform="matrix(-0.9372683599 0 0 1.0883166623 42.8691074838 35.5589950754)" id="7M6Ha77BzhWxKN0BLK5EV"  >
<path style="stroke: rgb(173,255,47); stroke-width: 2; stroke-dasharray: none; stroke-linecap: butt; stroke-dashoffset: 0; stroke-linejoin: miter; stroke-miterlimit: 4; fill: rgb(255,255,255); fill-opacity: 0; fill-rule: nonzero; opacity: 1;" vector-effect="non-scaling-stroke"  transform=" translate(0.000005, 0)" d="M -12.57028 21.35459 C -12.57028 21.35459 -7.859170000000001 10.196700000000002 3.3408300000000004 18.818920000000002 C 14.54083 27.441140000000004 -14.128239999999998 9.137410000000003 12.57027 -21.354589999999998" stroke-linecap="round" />
</g>
<g transform="matrix(1 0 0 1 22.6464775632 64.2506953859)" id="oHHQOeivanSJ0RR2X6x2D"  >
<path style="stroke: rgb(173,255,47); stroke-width: 2; stroke-dasharray: none; stroke-linecap: butt; stroke-dashoffset: 0; stroke-linejoin: miter; stroke-miterlimit: 4; fill: rgb(255,255,255); fill-opacity: 0; fill-rule: nonzero; opacity: 1;" vector-effect="non-scaling-stroke"  transform=" translate(0.000005, -0.000005)" d="M -3.82324 7.37339 C -3.82324 7.37339 3.47567 2.6564099999999993 3.8232299999999997 -7.37338" stroke-linecap="round" />
</g>
<g transform="matrix(1 0 0 1 31.8599630924 73.1442835216)" id="-Yc02Rq16fBgawYnvGuko"  >
<path style="stroke: rgb(173,255,47); stroke-width: 2; stroke-dasharray: none; stroke-linecap: butt; stroke-dashoffset: 0; stroke-linejoin: miter; stroke-miterlimit: 4; fill: rgb(255,255,255); fill-opacity: 0; fill-rule: nonzero; opacity: 1;" vector-effect="non-scaling-stroke"  transform=" translate(0.0000011968, 0)" d="M -2.46073 -13.01702 C -2.46073 -13.01702 6.67408 8.97574 0.05326999999999993 13.01702" stroke-linecap="round" />
</g>
<g transform="matrix(1 0 0 1 13.641147259 67.482831186)" id="rzYMumMVXnG2_h18yojrl"  >
<path style="stroke: rgb(173,255,47); stroke-width: 2; stroke-dasharray: none; stroke-linecap: butt; stroke-dashoffset: 0; stroke-linejoin: miter; stroke-miterlimit: 4; fill: rgb(255,255,255); fill-opacity: 0; fill-rule: nonzero; opacity: 1;" vector-effect="non-scaling-stroke"  transform=" translate(0.0000027427, -8.191e-7)" d="M 12.9209 -10.89931 C 12.9209 -10.89931 5.202999999999999 -2.37721 -4.311299999999999 -4.70589 C -13.8256 -7.03457 -12.89607 7.40709 -12.89607 7.40709 C -12.89607 7.40709 -9.16825 17.121000000000002 5.336070000000001 4.146940000000001" stroke-linecap="round" />
</g>
<g transform="matrix(1 0 0 1 27.3378691397 73.6633954197)" id="7Ph6741wdFk1M8-XTK0Ig"  >
<path style="stroke: rgb(173,255,47); stroke-width: 2; stroke-dasharray: none; stroke-linecap: butt; stroke-dashoffset: 0; stroke-linejoin: miter; stroke-miterlimit: 4; fill: rgb(255,255,255); fill-opacity: 0; fill-rule: nonzero; opacity: 1;" vector-effect="non-scaling-stroke"  transform=" translate(0.0000051814, -0.0000011335)" d="M 4.52209 12.44229 C 4.52209 12.44229 -3.0379699999999996 16.50084 -4.368639999999999 8.98254 C -5.699309999999999 1.4642400000000002 2.0613600000000005 -13.53613 2.0613600000000005 -13.53613" stroke-linecap="round" />
</g>
</svg>