<?xml version="1.0" encoding="UTF-8" standalone="no" ?>
<!DOCTYPE svg PUBLIC "-//W3C//DTD SVG 1.1//EN" "http://www.w3.org/Graphics/SVG/1.1/DTD/svg11.dtd">
<svg xmlns="http://www.w3.org/2000/svg" xmlns:xlink="http://www.w3.org/1999/xlink" version="1.1" width="65.3685" height="89.1067" viewBox="0 0 65.3685 89.1067" xml:space="preserve">
<desc>Created with Fabric.js 5.3.0</desc>
<defs>
</defs>
<g transform="matrix(1 0 0 1 183.4248336312 122.4820071323)" id="dKDxOfZod-OWAtnlVEkew"  >
<path style="stroke: rgb(0,191,255); stroke-width: 2; stroke-dasharray: none; stroke-linecap: butt; stroke-dashoffset: 0; stroke-linejoin: miter; stroke-miterlimit: 4; fill: rgb(255,255,255); fill-opacity: 0; fill-rule: nonzero; opacity: 1;" vector-effect="non-scaling-stroke"  transform=" translate(0, 0)" d="M 0 0" stroke-linecap="round" />
</g>
<g transform="matrix(1 0 0 1 26.0249688589 70.4319688472)" id="JaXe2rJps5WHTrWA6um5f"  >
<path style="stroke: rgb(0,191,255); stroke-width: 2; stroke-dasharray: none; stroke-linecap: butt; stroke-dashoffset: 0; stroke-linejoin: miter; stroke-miterlimit: 4; fill: none; fill-rule: nonzero; opacity: 1;" vector-effect="non-scaling-stroke"  transform=" translate(-5.79635, -5.79635)" d="M 5.79635 0 C 8.995940000000001 0 11.5927 2.59676 11.5927 5.79635 C 11.5927 8.995940000000001 8.995940000000001 11.5927 5.79635 11.5927 C 2.59676 11.5927 0 8.995940000000001 0 5.79635 C 0 2.59676 2.59676 0 5.79635 0 z" stroke-linecap="round" />
</g>
<g transform="matrix(1 0 0 1 39.9073768229 70.4319688472)" id="120j3bxFsh_TmiSl44eIE"  >
<path style="stroke: rgb(0,191,255); stroke-width: 2; stroke-dasharray: none; stroke-linecap: butt; stroke-dashoffset: 0; stroke-linejoin: miter; stroke-miterlimit: 4; fill: none; fill-rule: nonzero; opacity: 1;" vector-effect="non-scaling-stroke"  transform=" translate(-5.79635, -5.79635)" d="M 5.79635 0 C 8.995940000000001 0 11.5927 2.59676 11.5927 5.79635 C 11.5927 8.995940000000001 8.995940000000001 11.5927 5.79635 11.5927 C 2.59676 11.5927 0 8.995940000000001 0 5.79635 C 0 2.59676 2.59676 0 5.79635 0 z" stroke-linecap="round" />
</g>
<g transform="matrix(-0.926626789 0 0 0.927439936 58.2299325525 68.2584310971)" id="77PXgaSb5O4rsjZMH0myJ"  >
<path style="stroke: rgb(0,191,255); stroke-width: 2; stroke-dasharray: none; stroke-linecap: butt; stroke-dashoffset: 0; stroke-linejoin: miter; stroke-miterlimit: 4; fill: rgb(255,255,255); fill-opacity: 0; fill-rule: nonzero; opacity: 1;" vector-effect="non-scaling-stroke"  transform=" translate(0.000005, 0)" d="M 7.38636 -3.90625 C 7.38636 -3.90625 -0.46165000000000056 -3.48011 -7.386369999999999 3.90625" stroke-linecap="round" />
</g>
<g transform="matrix(1 0 0 1 33.9492904249 83.0246688472)" id="o8VdIsqton2ZJYlU2K13s"  >
<path style="stroke: rgb(0,191,255); stroke-width: 2; stroke-dasharray: none; stroke-linecap: butt; stroke-dashoffset: 0; stroke-linejoin: miter; stroke-miterlimit: 4; fill: none; fill-rule: nonzero; opacity: 1;" vector-effect="non-scaling-stroke"  transform=" translate(-5.79635, -5.79635)" d="M 5.79635 0 C 8.995940000000001 0 11.5927 2.59676 11.5927 5.79635 C 11.5927 8.995940000000001 8.995940000000001 11.5927 5.79635 11.5927 C 2.59676 11.5927 0 8.995940000000001 0 5.79635 C 0 2.59676 2.59676 0 5.79635 0 z" stroke-linecap="round" />
</g>
<g transform="matrix(-0.926626789 0 0 0.927439936 46.9937635861 59.2240927846)" id="xU_lgT75klJa_Pb4UWfTH"  >
<path style="stroke: rgb(0,191,255); stroke-width: 2; stroke-dasharray: none; stroke-linecap: butt; stroke-dashoffset: 0; stroke-linejoin: miter; stroke-miterlimit: 4; fill: rgb(255,255,255); fill-opacity: 0; fill-rule: nonzero; opacity: 1;" vector-effect="non-scaling-stroke"  transform=" translate(0.0000027127, 0.000005)" d="M -1.13297 -5.86497 C -1.13297 -5.86497 14.28171 -3.4108699999999996 -4.75816 5.86496" stroke-linecap="round" />
</g>
<g transform="matrix(1 0 0 1 17.9943366017 31.3124434442)" id="ltLrNzTY69O8m4KASs4kX"  >
<path style="stroke: rgb(0,191,255); stroke-width: 2; stroke-dasharray: none; stroke-linecap: butt; stroke-dashoffset: 0; stroke-linejoin: miter; stroke-miterlimit: 4; fill: rgb(255,255,255); fill-opacity: 0; fill-rule: nonzero; opacity: 1;" vector-effect="non-scaling-stroke"  transform=" translate(0.0000037077, 0)" d="M -9.67041 23.29873 C -9.67041 23.29873 -16.82151 -2.931000000000001 10.514129999999998 -23.29873" stroke-linecap="round" />
</g>
<g transform="matrix(-0.926626789 0 0 0.927439936 56.5048360398 62.8290659591)" id="CD-F2iBnNzQaFx_OLcj_r"  >
<path style="stroke: rgb(0,191,255); stroke-width: 2; stroke-dasharray: none; stroke-linecap: butt; stroke-dashoffset: 0; stroke-linejoin: miter; stroke-miterlimit: 4; fill: rgb(255,255,255); fill-opacity: 0; fill-rule: nonzero; opacity: 1;" vector-effect="non-scaling-stroke"  transform=" translate(-0.0000034277, 0)" d="M -9.19371 9.75198 C -9.19371 9.75198 -11.334769999999999 -7.6739 9.257170000000002 -9.75198" stroke-linecap="round" />
</g>
<g transform="matrix(1 0 0 1 27.0757887812 4.2868931362)" id="PzhGzt2Crd3S0NeageIWd"  >
<path style="stroke: rgb(0,191,255); stroke-width: 2; stroke-dasharray: none; stroke-linecap: butt; stroke-dashoffset: 0; stroke-linejoin: miter; stroke-miterlimit: 4; fill: rgb(255,255,255); fill-opacity: 0; fill-rule: nonzero; opacity: 1;" vector-effect="non-scaling-stroke"  transform=" translate(0.0000035681, -0.0000025781)" d="M 1.93268 3.57261 C 1.93268 3.57261 -17.047839999999997 -10.021139999999999 5.530279999999999 0.29136000000000006" stroke-linecap="round" />
</g>
<g transform="matrix(1 0 0 1 8.1097572298 68.9270938148)" id="y3fM1EfR3pz19Ys4h_Pyl"  >
<path style="stroke: rgb(0,191,255); stroke-width: 2; stroke-dasharray: none; stroke-linecap: butt; stroke-dashoffset: 0; stroke-linejoin: miter; stroke-miterlimit: 4; fill: rgb(255,255,255); fill-opacity: 0; fill-rule: nonzero; opacity: 1;" vector-effect="non-scaling-stroke"  transform=" translate(0.000005, 0)" d="M 7.38636 -3.90625 C 7.38636 -3.90625 -0.46165000000000056 -3.48011 -7.386369999999999 3.90625" stroke-linecap="round" />
</g>
<g transform="matrix(1 0 0 1 38.6742188212 4.4159548419)" id="eh4Opcr73zOkGFkj5duiC"  >
<path style="stroke: rgb(0,191,255); stroke-width: 2; stroke-dasharray: none; stroke-linecap: butt; stroke-dashoffset: 0; stroke-linejoin: miter; stroke-miterlimit: 4; fill: rgb(255,255,255); fill-opacity: 0; fill-rule: nonzero; opacity: 1;" vector-effect="non-scaling-stroke"  transform=" translate(-0.0000015124, -0.0000012834)" d="M -1.23356 3.09776 C -1.23356 3.09776 13.80529 -8.71171 -4.56319 0.2783000000000002" stroke-linecap="round" />
</g>
<g transform="matrix(1 0 0 1 20.2356412418 59.1859365039)" id="jcB2SnghSgNF-0c3NzZMA"  >
<path style="stroke: rgb(0,191,255); stroke-width: 2; stroke-dasharray: none; stroke-linecap: butt; stroke-dashoffset: 0; stroke-linejoin: miter; stroke-miterlimit: 4; fill: rgb(255,255,255); fill-opacity: 0; fill-rule: nonzero; opacity: 1;" vector-effect="non-scaling-stroke"  transform=" translate(0.0000027127, 0.000005)" d="M -1.13297 -5.86497 C -1.13297 -5.86497 14.28171 -3.4108699999999996 -4.75816 5.86496" stroke-linecap="round" />
</g>
<g transform="matrix(1 0 0 1 33.4492932507 4.6500775519)" id="noG3WitvcanYwOsyG9gKG"  >
<path style="stroke: rgb(0,191,255); stroke-width: 2; stroke-dasharray: none; stroke-linecap: butt; stroke-dashoffset: 0; stroke-linejoin: miter; stroke-miterlimit: 4; fill: rgb(255,255,255); fill-opacity: 0; fill-rule: nonzero; opacity: 1;" vector-effect="non-scaling-stroke"  transform=" translate(0, -0.0000022222)" d="M -0.8366 -0.23412 C -0.8366 -0.23412 -0.042910000000000004 0.81943 0.8366 -0.23412" stroke-linecap="round" />
</g>
<g transform="matrix(1 0 0 1 19.1026750004 53.3209700526)" id="E5Bpr0FwhrJ9DbIOQk-yY"  >
<path style="stroke: rgb(0,191,255); stroke-width: 2; stroke-dasharray: none; stroke-linecap: butt; stroke-dashoffset: 0; stroke-linejoin: miter; stroke-miterlimit: 4; fill: rgb(255,255,255); fill-opacity: 0; fill-rule: nonzero; opacity: 1;" vector-effect="non-scaling-stroke"  transform=" translate(0, 0)" d="M 0 0" stroke-linecap="round" />
</g>
<g transform="matrix(1 0 0 1 20.8790154249 33.1591732241)" id="zhSxLJfPoykV0REExpZaH"  >
<path style="stroke: rgb(0,191,255); stroke-width: 2; stroke-dasharray: none; stroke-linecap: butt; stroke-dashoffset: 0; stroke-linejoin: miter; stroke-miterlimit: 4; fill: rgb(255,255,255); fill-opacity: 0; fill-rule: nonzero; opacity: 1;" vector-effect="non-scaling-stroke"  transform=" translate(0.000005, 0)" d="M -12.57028 21.35459 C -12.57028 21.35459 -7.859170000000001 10.196700000000002 3.3408300000000004 18.818920000000002 C 14.54083 27.441140000000004 -14.128239999999998 9.137410000000003 12.57027 -21.354589999999998" stroke-linecap="round" />
</g>
<g transform="matrix(1 0 0 1 9.9714522866 63.0729517539)" id="rqYrekj7Z8mHZMr2vy67O"  >
<path style="stroke: rgb(0,191,255); stroke-width: 2; stroke-dasharray: none; stroke-linecap: butt; stroke-dashoffset: 0; stroke-linejoin: miter; stroke-miterlimit: 4; fill: rgb(255,255,255); fill-opacity: 0; fill-rule: nonzero; opacity: 1;" vector-effect="non-scaling-stroke"  transform=" translate(-0.0000034277, 0)" d="M -9.19371 9.75198 C -9.19371 9.75198 -11.334769999999999 -7.6739 9.257170000000002 -9.75198" stroke-linecap="round" />
</g>
<g transform="matrix(-0.9460005805 0 0 0.9932065029 47.9522815982 30.5127553811)" id="-Yk6iI4pnGESufI-Wb7WU"  >
<path style="stroke: rgb(0,191,255); stroke-width: 2; stroke-dasharray: none; stroke-linecap: butt; stroke-dashoffset: 0; stroke-linejoin: miter; stroke-miterlimit: 4; fill: rgb(255,255,255); fill-opacity: 0; fill-rule: nonzero; opacity: 1;" vector-effect="non-scaling-stroke"  transform=" translate(0.0000037077, 0)" d="M -9.67041 23.29873 C -9.67041 23.29873 -16.82151 -2.931000000000001 10.514129999999998 -23.29873" stroke-linecap="round" />
</g>
<g transform="matrix(1 0 0 1 32.7873142824 40.783765845)" id="OaC0pMXzlzjbMEPuinEYb"  >
<path style="stroke: rgb(0,191,255); stroke-width: 2; stroke-dasharray: none; stroke-linecap: butt; stroke-dashoffset: 0; stroke-linejoin: miter; stroke-miterlimit: 4; fill: rgb(255,255,255); fill-opacity: 0; fill-rule: nonzero; opacity: 1;" vector-effect="non-scaling-stroke"  transform=" translate(-0.000005, 0.0000011111)" d="M 4.99769 9.77101 C 4.99769 9.77101 2.1319200000000005 -34.198539999999994 -4.997679999999999 9.77101" stroke-linecap="round" />
</g>
<g transform="matrix(-0.9460005805 0 0 0.9932065029 45.2233737568 32.3469394076)" id="SUhZJmCW4CGJFVSabY3SN"  >
<path style="stroke: rgb(0,191,255); stroke-width: 2; stroke-dasharray: none; stroke-linecap: butt; stroke-dashoffset: 0; stroke-linejoin: miter; stroke-miterlimit: 4; fill: rgb(255,255,255); fill-opacity: 0; fill-rule: nonzero; opacity: 1;" vector-effect="non-scaling-stroke"  transform=" translate(0.000005, 0)" d="M -12.57028 21.35459 C -12.57028 21.35459 -7.859170000000001 10.196700000000002 3.3408300000000004 18.818920000000002 C 14.54083 27.441140000000004 -14.128239999999998 9.137410000000003 12.57027 -21.354589999999998" stroke-linecap="round" />
</g>
<g transform="matrix(1 0 0 1 32.7771908815 52.9406103468)" id="FBIcdQMgtui25EOia1X4L"  >
<path style="stroke: rgb(0,191,255); stroke-width: 2; stroke-dasharray: none; stroke-linecap: butt; stroke-dashoffset: 0; stroke-linejoin: miter; stroke-miterlimit: 4; fill: rgb(255,255,255); fill-opacity: 0; fill-rule: nonzero; opacity: 1;" vector-effect="non-scaling-stroke"  transform=" translate(0.000005, -0.0000044444)" d="M -5.0342 -2.44474 C -5.0342 -2.44474 0.10482999999999976 8.556610000000001 5.034190000000001 -2.44474" stroke-linecap="round" />
</g>
</svg>