<?xml version="1.0" encoding="UTF-8" standalone="no" ?>
<!DOCTYPE svg PUBLIC "-//W3C//DTD SVG 1.1//EN" "http://www.w3.org/Graphics/SVG/1.1/DTD/svg11.dtd">
<svg xmlns="http://www.w3.org/2000/svg" xmlns:xlink="http://www.w3.org/1999/xlink" version="1.1" width="141" height="183" viewBox="0 0 141 183" xml:space="preserve">
<desc>Created with Fabric.js 5.3.0</desc>
<defs>
</defs>
<g transform="matrix(1 0 0 1 107.2256925386 44.8277925386)" id="-TcCvr6tFyp8bhWRBrxUh"  >
<g style="" vector-effect="non-scaling-stroke"   >
		<g transform="matrix(1 0 0 1 150.7405836312 77.9286571323)" id="jH-zKzqbUY68vbnu63Pyw"  >
<path style="stroke: rgb(0,191,255); stroke-width: 2; stroke-dasharray: none; stroke-linecap: butt; stroke-dashoffset: 0; stroke-linejoin: miter; stroke-miterlimit: 4; fill: rgb(255,255,255); fill-opacity: 0; fill-rule: nonzero; opacity: 1;" vector-effect="non-scaling-stroke"  transform=" translate(0, 0)" d="M 0 0" stroke-linecap="round" />
</g>
		<g transform="matrix(1 0 0 1 -6.6592811411 25.8786188472)" id="ZwBF2Lzv1E4y7oiLnCkXO"  >
<path style="stroke: rgb(0,191,255); stroke-width: 2; stroke-dasharray: none; stroke-linecap: butt; stroke-dashoffset: 0; stroke-linejoin: miter; stroke-miterlimit: 4; fill: none; fill-rule: nonzero; opacity: 1;" vector-effect="non-scaling-stroke"  transform=" translate(-5.79635, -5.79635)" d="M 5.79635 0 C 8.995940000000001 0 11.5927 2.59676 11.5927 5.79635 C 11.5927 8.995940000000001 8.995940000000001 11.5927 5.79635 11.5927 C 2.59676 11.5927 0 8.995940000000001 0 5.79635 C 0 2.59676 2.59676 0 5.79635 0 z" stroke-linecap="round" />
</g>
		<g transform="matrix(1 0 0 1 7.2231268229 25.8786188472)" id="X0S7qeaxeuaNf9JzVeH_6"  >
<path style="stroke: rgb(0,191,255); stroke-width: 2; stroke-dasharray: none; stroke-linecap: butt; stroke-dashoffset: 0; stroke-linejoin: miter; stroke-miterlimit: 4; fill: none; fill-rule: nonzero; opacity: 1;" vector-effect="non-scaling-stroke"  transform=" translate(-5.79635, -5.79635)" d="M 5.79635 0 C 8.995940000000001 0 11.5927 2.59676 11.5927 5.79635 C 11.5927 8.995940000000001 8.995940000000001 11.5927 5.79635 11.5927 C 2.59676 11.5927 0 8.995940000000001 0 5.79635 C 0 2.59676 2.59676 0 5.79635 0 z" stroke-linecap="round" />
</g>
		<g transform="matrix(-0.926626789 0 0 0.927439936 25.5456825525 23.7050810971)" id="Omd8tujXwFHu0vwZLsQMm"  >
<path style="stroke: rgb(0,191,255); stroke-width: 2; stroke-dasharray: none; stroke-linecap: butt; stroke-dashoffset: 0; stroke-linejoin: miter; stroke-miterlimit: 4; fill: rgb(255,255,255); fill-opacity: 0; fill-rule: nonzero; opacity: 1;" vector-effect="non-scaling-stroke"  transform=" translate(0.000005, 0)" d="M 7.38636 -3.90625 C 7.38636 -3.90625 -0.46165000000000056 -3.48011 -7.386369999999999 3.90625" stroke-linecap="round" />
</g>
		<g transform="matrix(1 0 0 1 1.2650404249 38.4713188472)" id="9lT2_TaU1pKgXndehqoZ9"  >
<path style="stroke: rgb(0,191,255); stroke-width: 2; stroke-dasharray: none; stroke-linecap: butt; stroke-dashoffset: 0; stroke-linejoin: miter; stroke-miterlimit: 4; fill: none; fill-rule: nonzero; opacity: 1;" vector-effect="non-scaling-stroke"  transform=" translate(-5.79635, -5.79635)" d="M 5.79635 0 C 8.995940000000001 0 11.5927 2.59676 11.5927 5.79635 C 11.5927 8.995940000000001 8.995940000000001 11.5927 5.79635 11.5927 C 2.59676 11.5927 0 8.995940000000001 0 5.79635 C 0 2.59676 2.59676 0 5.79635 0 z" stroke-linecap="round" />
</g>
		<g transform="matrix(-0.926626789 0 0 0.927439936 14.3095135861 14.6707427846)" id="r2nc6RxqYPsYMyJTin_Sm"  >
<path style="stroke: rgb(0,191,255); stroke-width: 2; stroke-dasharray: none; stroke-linecap: butt; stroke-dashoffset: 0; stroke-linejoin: miter; stroke-miterlimit: 4; fill: rgb(255,255,255); fill-opacity: 0; fill-rule: nonzero; opacity: 1;" vector-effect="non-scaling-stroke"  transform=" translate(0.0000027127, 0.000005)" d="M -1.13297 -5.86497 C -1.13297 -5.86497 14.28171 -3.4108699999999996 -4.75816 5.86496" stroke-linecap="round" />
</g>
		<g transform="matrix(1 0 0 1 -14.6899133983 -13.2409065558)" id="8oehUG1kmAkWs6ZBEkmQF"  >
<path style="stroke: rgb(0,191,255); stroke-width: 2; stroke-dasharray: none; stroke-linecap: butt; stroke-dashoffset: 0; stroke-linejoin: miter; stroke-miterlimit: 4; fill: rgb(255,255,255); fill-opacity: 0; fill-rule: nonzero; opacity: 1;" vector-effect="non-scaling-stroke"  transform=" translate(0.0000037077, 0)" d="M -9.67041 23.29873 C -9.67041 23.29873 -16.82151 -2.931000000000001 10.514129999999998 -23.29873" stroke-linecap="round" />
</g>
		<g transform="matrix(-0.926626789 0 0 0.927439936 23.8205860398 18.2757159591)" id="6dq0eoOka_sawxUx4ykdt"  >
<path style="stroke: rgb(0,191,255); stroke-width: 2; stroke-dasharray: none; stroke-linecap: butt; stroke-dashoffset: 0; stroke-linejoin: miter; stroke-miterlimit: 4; fill: rgb(255,255,255); fill-opacity: 0; fill-rule: nonzero; opacity: 1;" vector-effect="non-scaling-stroke"  transform=" translate(-0.0000034277, 0)" d="M -9.19371 9.75198 C -9.19371 9.75198 -11.334769999999999 -7.6739 9.257170000000002 -9.75198" stroke-linecap="round" />
</g>
		<g transform="matrix(1 0 0 1 -5.6084612188 -40.2664568638)" id="_RAUfiTDH4vdP-fHbAygn"  >
<path style="stroke: rgb(0,191,255); stroke-width: 2; stroke-dasharray: none; stroke-linecap: butt; stroke-dashoffset: 0; stroke-linejoin: miter; stroke-miterlimit: 4; fill: rgb(255,255,255); fill-opacity: 0; fill-rule: nonzero; opacity: 1;" vector-effect="non-scaling-stroke"  transform=" translate(0.0000035681, -0.0000025781)" d="M 1.93268 3.57261 C 1.93268 3.57261 -17.047839999999997 -10.021139999999999 5.530279999999999 0.29136000000000006" stroke-linecap="round" />
</g>
		<g transform="matrix(1 0 0 1 -24.5744927702 24.3737438148)" id="XQ_SIKArgQ91XN3Ajhn8Y"  >
<path style="stroke: rgb(0,191,255); stroke-width: 2; stroke-dasharray: none; stroke-linecap: butt; stroke-dashoffset: 0; stroke-linejoin: miter; stroke-miterlimit: 4; fill: rgb(255,255,255); fill-opacity: 0; fill-rule: nonzero; opacity: 1;" vector-effect="non-scaling-stroke"  transform=" translate(0.000005, 0)" d="M 7.38636 -3.90625 C 7.38636 -3.90625 -0.46165000000000056 -3.48011 -7.386369999999999 3.90625" stroke-linecap="round" />
</g>
		<g transform="matrix(1 0 0 1 5.9899688212 -40.1373951581)" id="ajR2QULB1dbaI-CRLxCwk"  >
<path style="stroke: rgb(0,191,255); stroke-width: 2; stroke-dasharray: none; stroke-linecap: butt; stroke-dashoffset: 0; stroke-linejoin: miter; stroke-miterlimit: 4; fill: rgb(255,255,255); fill-opacity: 0; fill-rule: nonzero; opacity: 1;" vector-effect="non-scaling-stroke"  transform=" translate(-0.0000015124, -0.0000012834)" d="M -1.23356 3.09776 C -1.23356 3.09776 13.80529 -8.71171 -4.56319 0.2783000000000002" stroke-linecap="round" />
</g>
		<g transform="matrix(1 0 0 1 -12.4486087582 14.6325865039)" id="EVROXnA4ckH2hU4kTex7o"  >
<path style="stroke: rgb(0,191,255); stroke-width: 2; stroke-dasharray: none; stroke-linecap: butt; stroke-dashoffset: 0; stroke-linejoin: miter; stroke-miterlimit: 4; fill: rgb(255,255,255); fill-opacity: 0; fill-rule: nonzero; opacity: 1;" vector-effect="non-scaling-stroke"  transform=" translate(0.0000027127, 0.000005)" d="M -1.13297 -5.86497 C -1.13297 -5.86497 14.28171 -3.4108699999999996 -4.75816 5.86496" stroke-linecap="round" />
</g>
		<g transform="matrix(1 0 0 1 0.7650432507 -39.9032724481)" id="R9brKHe8Dqg--H9m6GoR6"  >
<path style="stroke: rgb(0,191,255); stroke-width: 2; stroke-dasharray: none; stroke-linecap: butt; stroke-dashoffset: 0; stroke-linejoin: miter; stroke-miterlimit: 4; fill: rgb(255,255,255); fill-opacity: 0; fill-rule: nonzero; opacity: 1;" vector-effect="non-scaling-stroke"  transform=" translate(0, -0.0000022222)" d="M -0.8366 -0.23412 C -0.8366 -0.23412 -0.042910000000000004 0.81943 0.8366 -0.23412" stroke-linecap="round" />
</g>
		<g transform="matrix(1 0 0 1 -13.5815749996 8.7676200526)" id="fM4WBmraU6kGbwq2JfUpo"  >
<path style="stroke: rgb(0,191,255); stroke-width: 2; stroke-dasharray: none; stroke-linecap: butt; stroke-dashoffset: 0; stroke-linejoin: miter; stroke-miterlimit: 4; fill: rgb(255,255,255); fill-opacity: 0; fill-rule: nonzero; opacity: 1;" vector-effect="non-scaling-stroke"  transform=" translate(0, 0)" d="M 0 0" stroke-linecap="round" />
</g>
		<g transform="matrix(1 0 0 1 -11.8052345751 -11.3941767759)" id="YFPgNnoK3tpfVgfnev5mC"  >
<path style="stroke: rgb(0,191,255); stroke-width: 2; stroke-dasharray: none; stroke-linecap: butt; stroke-dashoffset: 0; stroke-linejoin: miter; stroke-miterlimit: 4; fill: rgb(255,255,255); fill-opacity: 0; fill-rule: nonzero; opacity: 1;" vector-effect="non-scaling-stroke"  transform=" translate(0.000005, 0)" d="M -12.57028 21.35459 C -12.57028 21.35459 -7.859170000000001 10.196700000000002 3.3408300000000004 18.818920000000002 C 14.54083 27.441140000000004 -14.128239999999998 9.137410000000003 12.57027 -21.354589999999998" stroke-linecap="round" />
</g>
		<g transform="matrix(1 0 0 1 -22.7127977134 18.5196017539)" id="U5u2H1AtDxVljbV8XBrA-"  >
<path style="stroke: rgb(0,191,255); stroke-width: 2; stroke-dasharray: none; stroke-linecap: butt; stroke-dashoffset: 0; stroke-linejoin: miter; stroke-miterlimit: 4; fill: rgb(255,255,255); fill-opacity: 0; fill-rule: nonzero; opacity: 1;" vector-effect="non-scaling-stroke"  transform=" translate(-0.0000034277, 0)" d="M -9.19371 9.75198 C -9.19371 9.75198 -11.334769999999999 -7.6739 9.257170000000002 -9.75198" stroke-linecap="round" />
</g>
		<g transform="matrix(-0.9460005805 0 0 0.9932065029 15.2680315982 -14.0405946189)" id="jvw5shsBlUiZ9yFKOLN1R"  >
<path style="stroke: rgb(0,191,255); stroke-width: 2; stroke-dasharray: none; stroke-linecap: butt; stroke-dashoffset: 0; stroke-linejoin: miter; stroke-miterlimit: 4; fill: rgb(255,255,255); fill-opacity: 0; fill-rule: nonzero; opacity: 1;" vector-effect="non-scaling-stroke"  transform=" translate(0.0000037077, 0)" d="M -9.67041 23.29873 C -9.67041 23.29873 -16.82151 -2.931000000000001 10.514129999999998 -23.29873" stroke-linecap="round" />
</g>
		<g transform="matrix(1 0 0 1 0.1030642824 -3.769584155)" id="iNDz5l-ejRW6HKDXtmvZx"  >
<path style="stroke: rgb(0,191,255); stroke-width: 2; stroke-dasharray: none; stroke-linecap: butt; stroke-dashoffset: 0; stroke-linejoin: miter; stroke-miterlimit: 4; fill: rgb(255,255,255); fill-opacity: 0; fill-rule: nonzero; opacity: 1;" vector-effect="non-scaling-stroke"  transform=" translate(-0.000005, 0.0000011111)" d="M 4.99769 9.77101 C 4.99769 9.77101 2.1319200000000005 -34.198539999999994 -4.997679999999999 9.77101" stroke-linecap="round" />
</g>
		<g transform="matrix(-0.9460005805 0 0 0.9932065029 12.5391237568 -12.2064105924)" id="lxnIUdDvdFasdhKAijfQe"  >
<path style="stroke: rgb(0,191,255); stroke-width: 2; stroke-dasharray: none; stroke-linecap: butt; stroke-dashoffset: 0; stroke-linejoin: miter; stroke-miterlimit: 4; fill: rgb(255,255,255); fill-opacity: 0; fill-rule: nonzero; opacity: 1;" vector-effect="non-scaling-stroke"  transform=" translate(0.000005, 0)" d="M -12.57028 21.35459 C -12.57028 21.35459 -7.859170000000001 10.196700000000002 3.3408300000000004 18.818920000000002 C 14.54083 27.441140000000004 -14.128239999999998 9.137410000000003 12.57027 -21.354589999999998" stroke-linecap="round" />
</g>
		<g transform="matrix(1 0 0 1 0.0929408815 8.3872603468)" id="hS1t6Sng6b2mo8Y5hjiJA"  >
<path style="stroke: rgb(0,191,255); stroke-width: 2; stroke-dasharray: none; stroke-linecap: butt; stroke-dashoffset: 0; stroke-linejoin: miter; stroke-miterlimit: 4; fill: rgb(255,255,255); fill-opacity: 0; fill-rule: nonzero; opacity: 1;" vector-effect="non-scaling-stroke"  transform=" translate(0.000005, -0.0000044444)" d="M -5.0342 -2.44474 C -5.0342 -2.44474 0.10482999999999976 8.556610000000001 5.034190000000001 -2.44474" stroke-linecap="round" />
</g>
</g>
</g>
<g transform="matrix(1 0 0 1 37.4079425386 44.7341425386)" id="CLHLJq4PJ05lWqP1HuWuA"  >
<g style="" vector-effect="non-scaling-stroke"   >
		<g transform="matrix(1 0 0 1 0.3508224981 24.8268146965)" id="dY293EjBxcViyL0y2gBEW"  >
<path style="stroke: rgb(255,20,147); stroke-width: 2; stroke-dasharray: none; stroke-linecap: butt; stroke-dashoffset: 0; stroke-linejoin: miter; stroke-miterlimit: 4; fill: rgb(255,255,255); fill-opacity: 0; fill-rule: nonzero; opacity: 1;" vector-effect="non-scaling-stroke"  transform=" translate(0.000005, 0)" d="M 15.78192 13.83708 C 15.78192 13.83708 3.5868 -48.42978 -15.78193 13.83708" stroke-linecap="round" />
</g>
		<g transform="matrix(1 0 0 1 -19.4103340836 13.6171490704)" id="fQaMp7Idu1DU3_pzDQ1ih"  >
<path style="stroke: rgb(255,20,147); stroke-width: 2; stroke-dasharray: none; stroke-linecap: butt; stroke-dashoffset: 0; stroke-linejoin: miter; stroke-miterlimit: 4; fill: rgb(255,255,255); fill-opacity: 0; fill-rule: nonzero; opacity: 1;" vector-effect="non-scaling-stroke"  transform=" translate(0.0000044413, 0.0000072222)" d="M 4.08543 25.01205 C 4.08543 25.01205 1.4282699999999995 37.48775 1.0070099999999997 25.01205 C 0.5857499999999998 12.536349999999999 5.86767 6.333499999999997 5.86767 6.333499999999997 C 5.86767 6.333499999999997 10.27731 -0.8715800000000025 12.835450000000002 -6.4464900000000025 C 15.393590000000001 -12.021400000000003 -8.745949999999997 -5.364820000000003 -11.025019999999998 -10.533020000000002 C -13.304089999999999 -15.701220000000003 -0.20203999999999844 -12.617510000000003 -13.025019999999998 -30.556820000000002" stroke-linecap="round" />
</g>
		<g transform="matrix(1 0 0 1 -15.931100027 -8.5388975554)" id="SXqUQXRkNx_0CPIccbubw"  >
<path style="stroke: rgb(255,20,147); stroke-width: 2; stroke-dasharray: none; stroke-linecap: butt; stroke-dashoffset: 0; stroke-linejoin: miter; stroke-miterlimit: 4; fill: rgb(255,255,255); fill-opacity: 0; fill-rule: nonzero; opacity: 1;" vector-effect="non-scaling-stroke"  transform=" translate(-0.000005, 0)" d="M -16.34277 -8.19294 C -16.34277 -8.19294 -3.133790000000001 -7.83941 16.342779999999998 8.19294" stroke-linecap="round" />
</g>
		<g transform="matrix(1 0 0 1 16.574684262 -7.3413143324)" id="gL9OfJu_WhNSbLu1_-3tM"  >
<path style="stroke: rgb(255,20,147); stroke-width: 2; stroke-dasharray: none; stroke-linecap: butt; stroke-dashoffset: 0; stroke-linejoin: miter; stroke-miterlimit: 4; fill: rgb(255,255,255); fill-opacity: 0; fill-rule: nonzero; opacity: 1;" vector-effect="non-scaling-stroke"  transform=" translate(9.635e-7, 0.0000018994)" d="M -16.16301 6.92378 C -16.16301 6.92378 10.80911 -10.98563 15.338719999999999 -9.243469999999999 C 19.86834 -7.501309999999998 3.7596999999999987 -0.28571999999999775 14.363109999999999 9.3628" stroke-linecap="round" />
</g>
		<g transform="matrix(1 0 0 1 19.4958531282 4.394043675)" id="DU5-FXgYULFcDyXVodebO"  >
<path style="stroke: rgb(255,20,147); stroke-width: 2; stroke-dasharray: none; stroke-linecap: butt; stroke-dashoffset: 0; stroke-linejoin: miter; stroke-miterlimit: 4; fill: rgb(255,255,255); fill-opacity: 0; fill-rule: nonzero; opacity: 1;" vector-effect="non-scaling-stroke"  transform=" translate(0.000005, 0.0000025565)" d="M 11.31718 -2.42073 C 11.31718 -2.42073 -2.1574600000000004 -2.72353 -11.31719 2.42408" stroke-linecap="round" />
</g>
		<g transform="matrix(1 0 0 1 14.1710734432 24.5458093958)" id="5CrBF_B6qpycq1kULZWnU"  >
<path style="stroke: rgb(255,20,147); stroke-width: 2; stroke-dasharray: none; stroke-linecap: butt; stroke-dashoffset: 0; stroke-linejoin: miter; stroke-miterlimit: 4; fill: rgb(255,255,255); fill-opacity: 0; fill-rule: nonzero; opacity: 1;" vector-effect="non-scaling-stroke"  transform=" translate(0.0000024725, 9.939e-7)" d="M -5.97756 -17.65198 C -5.97756 -17.65198 7.04288 2.7600300000000004 5.90738 12.82816 C 4.7718799999999995 22.89629 1.9439799999999998 14.079260000000001 1.9439799999999998 14.079260000000001" stroke-linecap="round" />
</g>
		<g transform="matrix(1 0 0 1 35.1521372489 -40.791102092)" id="1u0k-LneyU4Ct-bnaytQl"  >
<path style="stroke: rgb(255,20,147); stroke-width: 2; stroke-dasharray: none; stroke-linecap: butt; stroke-dashoffset: 0; stroke-linejoin: miter; stroke-miterlimit: 4; fill: rgb(255,255,255); fill-opacity: 0; fill-rule: nonzero; opacity: 1;" vector-effect="non-scaling-stroke"  transform=" translate(0, 0)" d="M 0 0" stroke-linecap="round" />
</g>
		<g transform="matrix(1 0 0 1 19.4958531282 -27.4818091151)" id="S8nUSiSv7R1Z8nsIW1g1i"  >
<path style="stroke: rgb(255,20,147); stroke-width: 2; stroke-dasharray: none; stroke-linecap: butt; stroke-dashoffset: 0; stroke-linejoin: miter; stroke-miterlimit: 4; fill: rgb(255,255,255); fill-opacity: 0; fill-rule: nonzero; opacity: 1;" vector-effect="non-scaling-stroke"  transform=" translate(0.0000012261, -0.0000022866)" d="M 5.4652 -4.28277 C 5.4652 -4.28277 24.21971 -25.85983 14.613970000000002 -4.28277 C 5.0082400000000025 17.29429 -12.240889999999997 13.638380000000002 -12.240889999999997 13.638380000000002 C -12.240889999999997 13.638380000000002 -25.144119999999997 3.817590000000001 -9.946979999999996 -2.418969999999998" stroke-linecap="round" />
</g>
		<g transform="matrix(1 0 0 1 17.4468165655 -30.6041303286)" id="bPM-nKNMFqXUrcdgq-AiG"  >
<path style="stroke: rgb(255,20,147); stroke-width: 2; stroke-dasharray: none; stroke-linecap: butt; stroke-dashoffset: 0; stroke-linejoin: miter; stroke-miterlimit: 4; fill: rgb(255,255,255); fill-opacity: 0; fill-rule: nonzero; opacity: 1;" vector-effect="non-scaling-stroke"  transform=" translate(-0.000005, -0.0000028806)" d="M -7.70609 0.84672 C -7.70609 0.84672 2.4731199999999998 2.99726 7.706100000000001 -1.3755000000000002" stroke-linecap="round" />
</g>
		<g transform="matrix(-1.0468818263 0 0 1.0177301554 -18.2537701326 -29.6268746137)" id="Tew5kp8OwHIGV1cVFv9me"  >
<path style="stroke: rgb(255,20,147); stroke-width: 2; stroke-dasharray: none; stroke-linecap: butt; stroke-dashoffset: 0; stroke-linejoin: miter; stroke-miterlimit: 4; fill: rgb(255,255,255); fill-opacity: 0; fill-rule: nonzero; opacity: 1;" vector-effect="non-scaling-stroke"  transform=" translate(0.0000012261, -0.0000022866)" d="M 5.4652 -4.28277 C 5.4652 -4.28277 24.21971 -25.85983 14.613970000000002 -4.28277 C 5.0082400000000025 17.29429 -12.240889999999997 13.638380000000002 -12.240889999999997 13.638380000000002 C -12.240889999999997 13.638380000000002 -25.144119999999997 3.817590000000001 -9.946979999999996 -2.418969999999998" stroke-linecap="round" />
</g>
		<g transform="matrix(-1.0468818263 0 0 1.0177301554 -16.1086709937 -32.8045550674)" id="VTs-6qPgBWGORqVSXeaFU"  >
<path style="stroke: rgb(255,20,147); stroke-width: 2; stroke-dasharray: none; stroke-linecap: butt; stroke-dashoffset: 0; stroke-linejoin: miter; stroke-miterlimit: 4; fill: rgb(255,255,255); fill-opacity: 0; fill-rule: nonzero; opacity: 1;" vector-effect="non-scaling-stroke"  transform=" translate(-0.000005, -0.0000028806)" d="M -7.70609 0.84672 C -7.70609 0.84672 2.4731199999999998 2.99726 7.706100000000001 -1.3755000000000002" stroke-linecap="round" />
</g>
		<g transform="matrix(1 0 0 1 21.5807860808 14.2674998754)" id="0FbAQeAd9Gh9f3wXjq3qP"  >
<path style="stroke: rgb(255,20,147); stroke-width: 2; stroke-dasharray: none; stroke-linecap: butt; stroke-dashoffset: 0; stroke-linejoin: miter; stroke-miterlimit: 4; fill: none; fill-rule: nonzero; opacity: 1;" vector-effect="non-scaling-stroke"  transform=" translate(-5.79635, -5.79635)" d="M 5.79635 0 C 8.995940000000001 0 11.5927 2.59676 11.5927 5.79635 C 11.5927 8.995940000000001 8.995940000000001 11.5927 5.79635 11.5927 C 2.59676 11.5927 0 8.995940000000001 0 5.79635 C 0 2.59676 2.59676 0 5.79635 0 z" stroke-linecap="round" />
</g>
		<g transform="matrix(1 0 0 1 0.3508224981 29.2068412965)" id="Wux8JyoGpHCNZqnembbhz"  >
<path style="stroke: rgb(255,20,147); stroke-width: 2; stroke-dasharray: none; stroke-linecap: butt; stroke-dashoffset: 0; stroke-linejoin: miter; stroke-miterlimit: 4; fill: none; fill-rule: nonzero; opacity: 1;" vector-effect="non-scaling-stroke"  transform=" translate(-5.79635, -5.79635)" d="M 5.79635 0 C 8.995940000000001 0 11.5927 2.59676 11.5927 5.79635 C 11.5927 8.995940000000001 8.995940000000001 11.5927 5.79635 11.5927 C 2.59676 11.5927 0 8.995940000000001 0 5.79635 C 0 2.59676 2.59676 0 5.79635 0 z" stroke-linecap="round" />
</g>
		<g transform="matrix(1 0 0 1 -23.0258233477 14.8138075886)" id="WLLCp6RfzBBkEsQbPHvf5"  >
<path style="stroke: rgb(255,20,147); stroke-width: 2; stroke-dasharray: none; stroke-linecap: butt; stroke-dashoffset: 0; stroke-linejoin: miter; stroke-miterlimit: 4; fill: none; fill-rule: nonzero; opacity: 1;" vector-effect="non-scaling-stroke"  transform=" translate(-5.79635, -5.79635)" d="M 5.79635 0 C 8.995940000000001 0 11.5927 2.59676 11.5927 5.79635 C 11.5927 8.995940000000001 8.995940000000001 11.5927 5.79635 11.5927 C 2.59676 11.5927 0 8.995940000000001 0 5.79635 C 0 2.59676 2.59676 0 5.79635 0 z" stroke-linecap="round" />
</g>
</g>
</g>
<g transform="matrix(1 0 0 1 112.0178425386 137.8467925386)" id="cd4DwHmixg5p5P2CkQunw"  >
<g style="" vector-effect="non-scaling-stroke"   >
		<g transform="matrix(0.8259867519 0 0 0.8293190682 1.2951240917 0.8970671328)" id="0Zk7l8_FEhwotDibtr2gh"  >
<path style="stroke: rgb(255,255,255); stroke-width: 2; stroke-dasharray: none; stroke-linecap: butt; stroke-dashoffset: 0; stroke-linejoin: miter; stroke-miterlimit: 4; fill: none; fill-rule: nonzero; opacity: 1;" vector-effect="non-scaling-stroke"  transform=" translate(0, 0)" d="M 0 -5.79635 C 3.19959 -5.79635 5.79635 -3.19959 5.79635 0 C 5.79635 3.19959 3.19959 5.79635 0 5.79635 C -3.19959 5.79635 -5.79635 3.19959 -5.79635 0 C -5.79635 -3.19959 -3.19959 -5.79635 0 -5.79635 z" stroke-linecap="round" />
</g>
		<g transform="matrix(1.0759770013 0 0 1.0558128522 -15.3340538188 -10.2979738777)" id="v9EcourFfBCPImIVUYM_H"  >
<path style="stroke: rgb(255,255,255); stroke-width: 2; stroke-dasharray: none; stroke-linecap: butt; stroke-dashoffset: 0; stroke-linejoin: miter; stroke-miterlimit: 4; fill: rgb(255,255,255); fill-opacity: 0; fill-rule: nonzero; opacity: 1;" vector-effect="non-scaling-stroke"  transform=" translate(0.0000037077, 0)" d="M -9.67041 23.29873 C -9.67041 23.29873 -16.82151 -2.931000000000001 10.514129999999998 -23.29873" stroke-linecap="round" />
</g>
		<g transform="matrix(1 0 0 1 6.5959696907 -39.9191369173)" id="XoChfAV7CkJiejxuuZSW-"  >
<path style="stroke: rgb(255,255,255); stroke-width: 2; stroke-dasharray: none; stroke-linecap: butt; stroke-dashoffset: 0; stroke-linejoin: miter; stroke-miterlimit: 4; fill: rgb(255,255,255); fill-opacity: 0; fill-rule: nonzero; opacity: 1;" vector-effect="non-scaling-stroke"  transform=" translate(0, 0)" d="M 0 0" stroke-linecap="round" />
</g>
		<g transform="matrix(1.0759770013 0 0 1.1127355915 -5.5626201353 -39.0440380509)" id="22REDJdVUu76lvvfMFjU4"  >
<path style="stroke: rgb(255,255,255); stroke-width: 2; stroke-dasharray: none; stroke-linecap: butt; stroke-dashoffset: 0; stroke-linejoin: miter; stroke-miterlimit: 4; fill: rgb(255,255,255); fill-opacity: 0; fill-rule: nonzero; opacity: 1;" vector-effect="non-scaling-stroke"  transform=" translate(0.0000035681, -0.0000025781)" d="M 1.93268 3.57261 C 1.93268 3.57261 -17.047839999999997 -10.021139999999999 5.530279999999999 0.29136000000000006" stroke-linecap="round" />
</g>
		<g transform="matrix(2.3034791213 0 0 -1.8390421818 1.9619944025 -31.2458817601)" id="OeG8IIgIsGAUw5_U_MGQi"  >
<path style="stroke: rgb(255,255,255); stroke-width: 2; stroke-dasharray: none; stroke-linecap: butt; stroke-dashoffset: 0; stroke-linejoin: miter; stroke-miterlimit: 4; fill: rgb(255,255,255); fill-opacity: 0; fill-rule: nonzero; opacity: 1;" vector-effect="non-scaling-stroke"  transform=" translate(0, -0.0000022222)" d="M -0.8366 -0.23412 C -0.8366 -0.23412 -0.042910000000000004 0.81943 0.8366 -0.23412" stroke-linecap="round" />
</g>
		<g transform="matrix(1.0759770013 0 0 1.1127355915 6.9170238392 -38.9004264975)" id="k8yiwUXD7Rich0c0uche6"  >
<path style="stroke: rgb(255,255,255); stroke-width: 2; stroke-dasharray: none; stroke-linecap: butt; stroke-dashoffset: 0; stroke-linejoin: miter; stroke-miterlimit: 4; fill: rgb(255,255,255); fill-opacity: 0; fill-rule: nonzero; opacity: 1;" vector-effect="non-scaling-stroke"  transform=" translate(-0.0000015124, -0.0000012834)" d="M -1.23356 3.09776 C -1.23356 3.09776 13.80529 -8.71171 -4.56319 0.2783000000000002" stroke-linecap="round" />
</g>
		<g transform="matrix(1.0759770013 0 0 1.1127355915 1.2951240917 -38.6399098253)" id="i6Ba3B74G9rMJW2vJc6cq"  >
<path style="stroke: rgb(255,255,255); stroke-width: 2; stroke-dasharray: none; stroke-linecap: butt; stroke-dashoffset: 0; stroke-linejoin: miter; stroke-miterlimit: 4; fill: rgb(255,255,255); fill-opacity: 0; fill-rule: nonzero; opacity: 1;" vector-effect="non-scaling-stroke"  transform=" translate(0, -0.0000022222)" d="M -0.8366 -0.23412 C -0.8366 -0.23412 -0.042910000000000004 0.81943 0.8366 -0.23412" stroke-linecap="round" />
</g>
		<g transform="matrix(1.0386235635 0 0 1.0741060486 -12.6997487623 -8.0988689421)" id="8tWCbifzis1rPySAeZ6oI"  >
<path style="stroke: rgb(255,255,255); stroke-width: 2; stroke-dasharray: none; stroke-linecap: butt; stroke-dashoffset: 0; stroke-linejoin: miter; stroke-miterlimit: 4; fill: rgb(255,255,255); fill-opacity: 0; fill-rule: nonzero; opacity: 1;" vector-effect="non-scaling-stroke"  transform=" translate(0.000005, 0)" d="M -12.57028 21.35459 C -12.57028 21.35459 -7.859170000000001 10.196700000000002 3.3408300000000004 18.818920000000002 C 14.54083 27.441140000000004 -14.128239999999998 9.137410000000003 12.57027 -21.354589999999998" stroke-linecap="round" />
</g>
		<g transform="matrix(-0.8960213339 0 0 0.864033934 7.9660027056 20.9505061756)" id="eHx9-n65Fapv2V5NIU8ul"  >
<path style="stroke: rgb(255,255,255); stroke-width: 2; stroke-dasharray: none; stroke-linecap: butt; stroke-dashoffset: 0; stroke-linejoin: miter; stroke-miterlimit: 4; fill: rgb(255,255,255); fill-opacity: 0; fill-rule: nonzero; opacity: 1;" vector-effect="non-scaling-stroke"  transform=" translate(0.000005, -0.000005)" d="M -3.82324 7.37339 C -3.82324 7.37339 3.47567 2.6564099999999993 3.8232299999999997 -7.37338" stroke-linecap="round" />
</g>
		<g transform="matrix(-1.0178748678 0 0 1.1051762255 16.9000060037 -9.8615877138)" id="Piwn9KMecfvWUv04mw8OT"  >
<path style="stroke: rgb(255,255,255); stroke-width: 2; stroke-dasharray: none; stroke-linecap: butt; stroke-dashoffset: 0; stroke-linejoin: miter; stroke-miterlimit: 4; fill: rgb(255,255,255); fill-opacity: 0; fill-rule: nonzero; opacity: 1;" vector-effect="non-scaling-stroke"  transform=" translate(0.0000037077, 0)" d="M -9.67041 23.29873 C -9.67041 23.29873 -16.82151 -2.931000000000001 10.514129999999998 -23.29873" stroke-linecap="round" />
</g>
		<g transform="matrix(-0.8960213339 0 0 0.864033934 16.0349707772 23.743181186)" id="L8vXrbPfz9_32HCCbcou1"  >
<path style="stroke: rgb(255,255,255); stroke-width: 2; stroke-dasharray: none; stroke-linecap: butt; stroke-dashoffset: 0; stroke-linejoin: miter; stroke-miterlimit: 4; fill: rgb(255,255,255); fill-opacity: 0; fill-rule: nonzero; opacity: 1;" vector-effect="non-scaling-stroke"  transform=" translate(0.0000027427, -8.191e-7)" d="M 12.9209 -10.89931 C 12.9209 -10.89931 5.202999999999999 -2.37721 -4.311299999999999 -4.70589 C -13.8256 -7.03457 -12.89607 7.40709 -12.89607 7.40709 C -12.89607 7.40709 -9.16825 17.121000000000002 5.336070000000001 4.146940000000001" stroke-linecap="round" />
</g>
		<g transform="matrix(-0.9372683599 0 0 1.0883166623 14.9770074838 -8.1806549246)" id="JAxEv9u1UitWAHPkdpb2N"  >
<path style="stroke: rgb(255,255,255); stroke-width: 2; stroke-dasharray: none; stroke-linecap: butt; stroke-dashoffset: 0; stroke-linejoin: miter; stroke-miterlimit: 4; fill: rgb(255,255,255); fill-opacity: 0; fill-rule: nonzero; opacity: 1;" vector-effect="non-scaling-stroke"  transform=" translate(0.000005, 0)" d="M -12.57028 21.35459 C -12.57028 21.35459 -7.859170000000001 10.196700000000002 3.3408300000000004 18.818920000000002 C 14.54083 27.441140000000004 -14.128239999999998 9.137410000000003 12.57027 -21.354589999999998" stroke-linecap="round" />
</g>
		<g transform="matrix(1 0 0 1 -5.2456224368 20.5110453859)" id="9n-kSdhK-jQpUmcpzh_1z"  >
<path style="stroke: rgb(255,255,255); stroke-width: 2; stroke-dasharray: none; stroke-linecap: butt; stroke-dashoffset: 0; stroke-linejoin: miter; stroke-miterlimit: 4; fill: rgb(255,255,255); fill-opacity: 0; fill-rule: nonzero; opacity: 1;" vector-effect="non-scaling-stroke"  transform=" translate(0.000005, -0.000005)" d="M -3.82324 7.37339 C -3.82324 7.37339 3.47567 2.6564099999999993 3.8232299999999997 -7.37338" stroke-linecap="round" />
</g>
		<g transform="matrix(1 0 0 1 3.9678630924 29.4046335216)" id="Ri0oHvmOnySSBXWgpMiJK"  >
<path style="stroke: rgb(255,255,255); stroke-width: 2; stroke-dasharray: none; stroke-linecap: butt; stroke-dashoffset: 0; stroke-linejoin: miter; stroke-miterlimit: 4; fill: rgb(255,255,255); fill-opacity: 0; fill-rule: nonzero; opacity: 1;" vector-effect="non-scaling-stroke"  transform=" translate(0.0000011968, 0)" d="M -2.46073 -13.01702 C -2.46073 -13.01702 6.67408 8.97574 0.05326999999999993 13.01702" stroke-linecap="round" />
</g>
		<g transform="matrix(1 0 0 1 -14.250952741 23.743181186)" id="Zd2uC6OvYdJrzPOMn9aaZ"  >
<path style="stroke: rgb(255,255,255); stroke-width: 2; stroke-dasharray: none; stroke-linecap: butt; stroke-dashoffset: 0; stroke-linejoin: miter; stroke-miterlimit: 4; fill: rgb(255,255,255); fill-opacity: 0; fill-rule: nonzero; opacity: 1;" vector-effect="non-scaling-stroke"  transform=" translate(0.0000027427, -8.191e-7)" d="M 12.9209 -10.89931 C 12.9209 -10.89931 5.202999999999999 -2.37721 -4.311299999999999 -4.70589 C -13.8256 -7.03457 -12.89607 7.40709 -12.89607 7.40709 C -12.89607 7.40709 -9.16825 17.121000000000002 5.336070000000001 4.146940000000001" stroke-linecap="round" />
</g>
		<g transform="matrix(1 0 0 1 -0.5542308603 29.9237454197)" id="yvEsBlfX9LL4ROQdbbTpi"  >
<path style="stroke: rgb(255,255,255); stroke-width: 2; stroke-dasharray: none; stroke-linecap: butt; stroke-dashoffset: 0; stroke-linejoin: miter; stroke-miterlimit: 4; fill: rgb(255,255,255); fill-opacity: 0; fill-rule: nonzero; opacity: 1;" vector-effect="non-scaling-stroke"  transform=" translate(0.0000051814, -0.0000011335)" d="M 4.52209 12.44229 C 4.52209 12.44229 -3.0379699999999996 16.50084 -4.368639999999999 8.98254 C -5.699309999999999 1.4642400000000002 2.0613600000000005 -13.53613 2.0613600000000005 -13.53613" stroke-linecap="round" />
</g>
</g>
</g>
<g transform="matrix(1 0 0 1 34.8682925386 135.4837925386)" id="s96pDH25ni_AwM4C5aXN2"  >
<g style="" vector-effect="non-scaling-stroke"   >
		<g transform="matrix(1.263201648 0 0 1.2682978404 -0.4309909226 23.0903433181)" id="tfET--WlQMaPQNLylRBvZ"  >
<path style="stroke: rgb(255,140,0); stroke-width: 2; stroke-dasharray: none; stroke-linecap: butt; stroke-dashoffset: 0; stroke-linejoin: miter; stroke-miterlimit: 4; fill: none; fill-rule: nonzero; opacity: 1;" vector-effect="non-scaling-stroke"  transform=" translate(0, 0)" d="M 0 -5.79635 C 3.19959 -5.79635 5.79635 -3.19959 5.79635 0 C 5.79635 3.19959 3.19959 5.79635 0 5.79635 C -3.19959 5.79635 -5.79635 3.19959 -5.79635 0 C -5.79635 -3.19959 -3.19959 -5.79635 0 -5.79635 z" stroke-linecap="round" />
</g>
		<g transform="matrix(1 0 0 1 -19.9949680818 20.6079828504)" id="0pxwyyY4BVbOtEm6k3QqQ"  >
<path style="stroke: rgb(255,140,0); stroke-width: 2; stroke-dasharray: none; stroke-linecap: butt; stroke-dashoffset: 0; stroke-linejoin: miter; stroke-miterlimit: 4; fill: rgb(255,255,255); fill-opacity: 0; fill-rule: nonzero; opacity: 1;" vector-effect="non-scaling-stroke"  transform=" translate(0, 0.0000015972)" d="M 8.83091 6.85732 C 8.83091 6.85732 -1.3824100000000001 7.403 -8.83091 -6.86008" stroke-linecap="round" />
</g>
		<g transform="matrix(1 0 0 1 -16.7489576051 29.2121209283)" id="CdJ-Wet2VxXI7wSySS7za"  >
<path style="stroke: rgb(255,140,0); stroke-width: 2; stroke-dasharray: none; stroke-linecap: butt; stroke-dashoffset: 0; stroke-linejoin: miter; stroke-miterlimit: 4; fill: rgb(255,255,255); fill-opacity: 0; fill-rule: nonzero; opacity: 1;" vector-effect="non-scaling-stroke"  transform=" translate(0.0000027536, -0.0000054441)" d="M -12.02998 -15.04314 C -12.02998 -15.04314 -18.50998 -11.37046 -10.58998 4.549540000000002 C -2.6699800000000007 20.469540000000002 13.41002 15.756860000000001 14.450019999999999 6.9568600000000025 C 15.490019999999998 -1.8431399999999982 5.570019999999998 -1.7468099999999982 5.570019999999998 -1.7468099999999982" stroke-linecap="round" />
</g>
		<g transform="matrix(-1.0618151438 0 0 1.0748401044 19.529403206 20.3998839435)" id="NssQAh9_szmP2pH1Su4jw"  >
<path style="stroke: rgb(255,140,0); stroke-width: 2; stroke-dasharray: none; stroke-linecap: butt; stroke-dashoffset: 0; stroke-linejoin: miter; stroke-miterlimit: 4; fill: rgb(255,255,255); fill-opacity: 0; fill-rule: nonzero; opacity: 1;" vector-effect="non-scaling-stroke"  transform=" translate(0, 0.0000015972)" d="M 8.83091 6.85732 C 8.83091 6.85732 -1.3824100000000001 7.403 -8.83091 -6.86008" stroke-linecap="round" />
</g>
		<g transform="matrix(-1.0618151438 0 0 1.0748401044 16.082740125 29.6479566134)" id="U7Y7pNJmQV8b6TEZCzEeD"  >
<path style="stroke: rgb(255,140,0); stroke-width: 2; stroke-dasharray: none; stroke-linecap: butt; stroke-dashoffset: 0; stroke-linejoin: miter; stroke-miterlimit: 4; fill: rgb(255,255,255); fill-opacity: 0; fill-rule: nonzero; opacity: 1;" vector-effect="non-scaling-stroke"  transform=" translate(0.0000027536, -0.0000054441)" d="M -12.02998 -15.04314 C -12.02998 -15.04314 -18.50998 -11.37046 -10.58998 4.549540000000002 C -2.6699800000000007 20.469540000000002 13.41002 15.756860000000001 14.450019999999999 6.9568600000000025 C 15.490019999999998 -1.8431399999999982 5.570019999999998 -1.7468099999999982 5.570019999999998 -1.7468099999999982" stroke-linecap="round" />
</g>
		<g transform="matrix(-1.0821525847 0 0 1 26.5221172958 -35.3378555112)" id="XSwTRthyuRNab7cch6Fjd"  >
<path style="stroke: rgb(255,140,0); stroke-width: 2; stroke-dasharray: none; stroke-linecap: butt; stroke-dashoffset: 0; stroke-linejoin: miter; stroke-miterlimit: 4; fill: rgb(255,255,255); fill-opacity: 0; fill-rule: nonzero; opacity: 1;" vector-effect="non-scaling-stroke"  transform=" translate(-0.0000055024, 0)" d="M 2.64989 9.74729 C 2.64989 9.74729 6.53076 8.03249 -3.3970399999999996 -9.74729" stroke-linecap="round" />
</g>
		<g transform="matrix(1 0 0 1 -25.647099714 -11.6542227178)" id="ekaCwde52tK9CNQF1SNx1"  >
<path style="stroke: rgb(255,140,0); stroke-width: 2; stroke-dasharray: none; stroke-linecap: butt; stroke-dashoffset: 0; stroke-linejoin: miter; stroke-miterlimit: 4; fill: rgb(255,255,255); fill-opacity: 0; fill-rule: nonzero; opacity: 1;" vector-effect="non-scaling-stroke"  transform=" translate(0, 0)" d="M 0 0" stroke-linecap="round" />
</g>
		<g transform="matrix(-1.0821525847 0 0 1 19.1308722941 -29.1487788753)" id="pRnoP2oNEKW2FH9MfUpm1"  >
<path style="stroke: rgb(255,140,0); stroke-width: 2; stroke-dasharray: none; stroke-linecap: butt; stroke-dashoffset: 0; stroke-linejoin: miter; stroke-miterlimit: 4; fill: rgb(255,255,255); fill-opacity: 0; fill-rule: nonzero; opacity: 1;" vector-effect="non-scaling-stroke"  transform=" translate(-0.0000065791, 0.0000032157)" d="M -10.38661 -16.22485 C -10.38661 -16.22485 6.433670000000001 -17.49213 10.0051 3.4756099999999996 C 13.57653 24.44335 -9.234529999999998 16.03321 -4.0502 3.4756099999999996" stroke-linecap="round" />
</g>
		<g transform="matrix(1 0 0 1 -19.0022289808 1.0425167336)" id="0y9h7M1soGcikkDYc6fP2"  >
<path style="stroke: rgb(255,140,0); stroke-width: 2; stroke-dasharray: none; stroke-linecap: butt; stroke-dashoffset: 0; stroke-linejoin: miter; stroke-miterlimit: 4; fill: rgb(255,255,255); fill-opacity: 0; fill-rule: nonzero; opacity: 1;" vector-effect="non-scaling-stroke"  transform=" translate(0.0000053049, -0.0000024855)" d="M -6.60347 -12.95171 C -6.60347 -12.95171 -10.89963 -13.69461 -13.82468 -9.12423 C -16.74973 -4.553850000000001 -13.184830000000002 3.8556599999999985 -7.974590000000001 3.490029999999999 C -2.764350000000001 3.124399999999999 2.902919999999998 1.022019999999999 14.877329999999999 12.996429999999998" stroke-linecap="round" />
</g>
		<g transform="matrix(1 0 0 1 -26.8050438913 -33.9211591856)" id="MxL-nGrKC0L8VBPx-lktr"  >
<path style="stroke: rgb(255,140,0); stroke-width: 2; stroke-dasharray: none; stroke-linecap: butt; stroke-dashoffset: 0; stroke-linejoin: miter; stroke-miterlimit: 4; fill: rgb(255,255,255); fill-opacity: 0; fill-rule: nonzero; opacity: 1;" vector-effect="non-scaling-stroke"  transform=" translate(-0.0000055024, 0)" d="M 2.64989 9.74729 C 2.64989 9.74729 6.53076 8.03249 -3.3970399999999996 -9.74729" stroke-linecap="round" />
</g>
		<g transform="matrix(1 0 0 1 -14.9553369511 0.9108165351)" id="Y9dId9O11AVIrOAVeOsBP"  >
<path style="stroke: rgb(255,140,0); stroke-width: 2; stroke-dasharray: none; stroke-linecap: butt; stroke-dashoffset: 0; stroke-linejoin: miter; stroke-miterlimit: 4; fill: rgb(255,255,255); fill-opacity: 0; fill-rule: nonzero; opacity: 1;" vector-effect="non-scaling-stroke"  transform=" translate(-0.000005, 0)" d="M 10.96755 12.82001 C 10.96755 12.82001 6.690569999999999 -11.25458 -10.96754 -12.82001" stroke-linecap="round" />
</g>
		<g transform="matrix(1 0 0 1 -19.9749118875 -27.7320825497)" id="6mAP0LEubZbt12RD0REWu"  >
<path style="stroke: rgb(255,140,0); stroke-width: 2; stroke-dasharray: none; stroke-linecap: butt; stroke-dashoffset: 0; stroke-linejoin: miter; stroke-miterlimit: 4; fill: rgb(255,255,255); fill-opacity: 0; fill-rule: nonzero; opacity: 1;" vector-effect="non-scaling-stroke"  transform=" translate(-0.0000065791, 0.0000032157)" d="M -10.38661 -16.22485 C -10.38661 -16.22485 6.433670000000001 -17.49213 10.0051 3.4756099999999996 C 13.57653 24.44335 -9.234529999999998 16.03321 -4.0502 3.4756099999999996" stroke-linecap="round" />
</g>
		<g transform="matrix(-1.0325834002 0 0 0.942208275 18.9460183083 0.591118832)" id="lXtnvOfiWheanrLQdlA-8"  >
<path style="stroke: rgb(255,140,0); stroke-width: 2; stroke-dasharray: none; stroke-linecap: butt; stroke-dashoffset: 0; stroke-linejoin: miter; stroke-miterlimit: 4; fill: rgb(255,255,255); fill-opacity: 0; fill-rule: nonzero; opacity: 1;" vector-effect="non-scaling-stroke"  transform=" translate(0.0000053049, -0.0000024855)" d="M -6.60347 -12.95171 C -6.60347 -12.95171 -10.89963 -13.69461 -13.82468 -9.12423 C -16.74973 -4.553850000000001 -13.184830000000002 3.8556599999999985 -7.974590000000001 3.490029999999999 C -2.764350000000001 3.124399999999999 2.902919999999998 1.022019999999999 14.877329999999999 12.996429999999998" stroke-linecap="round" />
</g>
		<g transform="matrix(1 0 0 1 -0.176518104 -1.2739508693)" id="3ZkzzI7VBmSlj8GAu8XQo"  >
<path style="stroke: rgb(255,140,0); stroke-width: 2; stroke-dasharray: none; stroke-linecap: butt; stroke-dashoffset: 0; stroke-linejoin: miter; stroke-miterlimit: 4; fill: rgb(255,255,255); fill-opacity: 0; fill-rule: nonzero; opacity: 1;" vector-effect="non-scaling-stroke"  transform=" translate(2.704e-7, -0.0000035661)" d="M -0.25447 15.8129 C -0.25447 15.8129 -17.441470000000002 -17.19032 0.33487 -15.768219999999998 C 18.11121 -14.346109999999998 -2.01148 9.603780000000002 -0.25447 14.942930000000002" stroke-linecap="round" />
</g>
		<g transform="matrix(-1.0325834002 0 0 0.942208275 14.7672647758 0.4670298152)" id="F3NGHoveF1HTeYq9-23FZ"  >
<path style="stroke: rgb(255,140,0); stroke-width: 2; stroke-dasharray: none; stroke-linecap: butt; stroke-dashoffset: 0; stroke-linejoin: miter; stroke-miterlimit: 4; fill: rgb(255,255,255); fill-opacity: 0; fill-rule: nonzero; opacity: 1;" vector-effect="non-scaling-stroke"  transform=" translate(-0.000005, 0)" d="M 10.96755 12.82001 C 10.96755 12.82001 6.690569999999999 -11.25458 -10.96754 -12.82001" stroke-linecap="round" />
</g>
</g>
</g>
</svg>