<?xml version="1.0" encoding="UTF-8" standalone="no" ?>
<!DOCTYPE svg PUBLIC "-//W3C//DTD SVG 1.1//EN" "http://www.w3.org/Graphics/SVG/1.1/DTD/svg11.dtd">
<svg xmlns="http://www.w3.org/2000/svg" xmlns:xlink="http://www.w3.org/1999/xlink" version="1.1" width="158.5719" height="228.098" viewBox="0 0 158.5719 228.098" xml:space="preserve">
<desc>Created with Fabric.js 5.3.0</desc>
<defs>
</defs>
<g transform="matrix(1 0 0 1 34.4380196523 84.2834878783)" id="Tqbje2LQKG0DPUiCHuhvY"  >
<path style="stroke: rgb(64,224,208); stroke-width: 2; stroke-dasharray: none; stroke-linecap: butt; stroke-dashoffset: 0; stroke-linejoin: miter; stroke-miterlimit: 4; fill: rgb(255,255,255); fill-opacity: 0; fill-rule: nonzero; opacity: 1;" vector-effect="non-scaling-stroke"  transform=" translate(0, 0)" d="M 33.67347 -82.40741 C 33.67347 -82.40741 -57.993199999999995 -34.25926 -27.437639999999995 82.4074" stroke-linecap="round" />
</g>
<g transform="matrix(1 0 0 1 26.2714415458 155.0230142496)" id="SmgDU5VfqGFwvRBiLSWOq"  >
<path style="stroke: rgb(64,224,208); stroke-width: 2; stroke-dasharray: none; stroke-linecap: butt; stroke-dashoffset: 0; stroke-linejoin: miter; stroke-miterlimit: 4; fill: rgb(255,255,255); fill-opacity: 0; fill-rule: nonzero; opacity: 1;" vector-effect="non-scaling-stroke"  transform=" translate(0, 0)" d="M 19.20694 -9.19105 C 19.20694 -9.19105 -13.630730000000003 -21.70654 -19.20694 11.502880000000001" stroke-linecap="round" />
</g>
<g transform="matrix(1 0 0 1 49.1895116146 75.8045793691)" id="4R8D9ZMdflMpeYSmQDi6-"  >
<path style="stroke: rgb(64,224,208); stroke-width: 2; stroke-dasharray: none; stroke-linecap: butt; stroke-dashoffset: 0; stroke-linejoin: miter; stroke-miterlimit: 4; fill: rgb(255,255,255); fill-opacity: 0; fill-rule: nonzero; opacity: 1;" vector-effect="non-scaling-stroke"  transform=" translate(0, 0)" d="M -4.08288 69.36312 C -4.08288 69.36312 -51.06636 2.8744200000000006 19.42198 -69.36312" stroke-linecap="round" />
</g>
<g transform="matrix(1 0 0 1 70.4532483422 3.5853318931)" id="FoHv_ApjZpBicVMIci-8n"  >
<path style="stroke: rgb(64,224,208); stroke-width: 2; stroke-dasharray: none; stroke-linecap: butt; stroke-dashoffset: 0; stroke-linejoin: miter; stroke-miterlimit: 4; fill: rgb(255,255,255); fill-opacity: 0; fill-rule: nonzero; opacity: 1;" vector-effect="non-scaling-stroke"  transform=" translate(0, 0)" d="M -1.84176 2.82078 C -1.84176 2.82078 8.28718 -5.830979999999999 -2.4774000000000003 -1.7062299999999997" stroke-linecap="round" />
</g>
<g transform="matrix(1 0 0 1 78.0827382331 86.9210330385)" id="WpEmhEhAW8WG5SQzBLPu8"  >
<path style="stroke: rgb(64,224,208); stroke-width: 2; stroke-dasharray: none; stroke-linecap: butt; stroke-dashoffset: 0; stroke-linejoin: miter; stroke-miterlimit: 4; fill: rgb(255,255,255); fill-opacity: 0; fill-rule: nonzero; opacity: 1;" vector-effect="non-scaling-stroke"  transform=" translate(0, 0)" d="M 28.89323 -11.11645 C 28.89323 -11.11645 -3.0108700000000006 -28.08989 -28.893220000000003 14.459129999999998" stroke-linecap="round" />
</g>
<g transform="matrix(1 0 0 1 48.6895116146 101.8801561976)" id="YYVD4PWts88NSIZuxk3vD"  >
<path style="stroke: rgb(64,224,208); stroke-width: 2; stroke-dasharray: none; stroke-linecap: butt; stroke-dashoffset: 0; stroke-linejoin: miter; stroke-miterlimit: 4; fill: rgb(255,255,255); fill-opacity: 0; fill-rule: nonzero; opacity: 1;" vector-effect="non-scaling-stroke"  transform=" translate(0, 0)" d="M 0 0" stroke-linecap="round" />
</g>
<g transform="matrix(1 0 0 1 55.8400480847 118.9171300461)" id="d-VGhI0MH3T5Z2Keu1QFL"  >
<path style="stroke: rgb(64,224,208); stroke-width: 2; stroke-dasharray: none; stroke-linecap: butt; stroke-dashoffset: 0; stroke-linejoin: miter; stroke-miterlimit: 4; fill: rgb(255,255,255); fill-opacity: 0; fill-rule: nonzero; opacity: 1;" vector-effect="non-scaling-stroke"  transform=" translate(0, 0)" d="M -6.65054 -17.53697 C -6.65054 -17.53697 -21.24572 21.935100000000002 10.049770000000002 17.13161" stroke-linecap="round" />
</g>
<g transform="matrix(1 0 0 1 86.6101109553 105.9266576396)" id="4OPwA6xRPui91QU9EuGS3"  >
<path style="stroke: rgb(64,224,208); stroke-width: 2; stroke-dasharray: none; stroke-linecap: butt; stroke-dashoffset: 0; stroke-linejoin: miter; stroke-miterlimit: 4; fill: rgb(255,255,255); fill-opacity: 0; fill-rule: nonzero; opacity: 1;" vector-effect="non-scaling-stroke"  transform=" translate(0, 0)" d="M -20.86585 30.12208 C -20.86585 30.12208 -11.113299999999999 27.21087 -6.309809999999999 -2.4834500000000013 C -1.5063199999999988 -32.17777 13.58784 -25.46414 20.86586 -30.12208" stroke-linecap="round" />
</g>
<g transform="matrix(1 0 0 1 109.7943979231 98.5374244382)" id="RkjSVu_nYEiDBlacAklrb"  >
<path style="stroke: rgb(64,224,208); stroke-width: 2; stroke-dasharray: none; stroke-linecap: butt; stroke-dashoffset: 0; stroke-linejoin: miter; stroke-miterlimit: 4; fill: rgb(255,255,255); fill-opacity: 0; fill-rule: nonzero; opacity: 1;" vector-effect="non-scaling-stroke"  transform=" translate(0, 0)" d="M 0 0" stroke-linecap="round" />
</g>
<g transform="matrix(1 0 0 1 101.2358761338 112.416427997)" id="cMR8xpqHm6PcfLRD6p7wZ"  >
<path style="stroke: rgb(64,224,208); stroke-width: 2; stroke-dasharray: none; stroke-linecap: butt; stroke-dashoffset: 0; stroke-linejoin: miter; stroke-miterlimit: 4; fill: rgb(255,255,255); fill-opacity: 0; fill-rule: nonzero; opacity: 1;" vector-effect="non-scaling-stroke"  transform=" translate(0, 0)" d="M 6.24009 -13.879 C 6.24009 -13.879 -17.06425 -6.583629999999999 0.017600000000000726 13.87901" stroke-linecap="round" />
</g>
<g transform="matrix(1 0 0 1 101.2358761338 126.1099535173)" id="gXj-uGYdFgAugSVK_bJFJ"  >
<path style="stroke: rgb(64,224,208); stroke-width: 2; stroke-dasharray: none; stroke-linecap: butt; stroke-dashoffset: 0; stroke-linejoin: miter; stroke-miterlimit: 4; fill: rgb(255,255,255); fill-opacity: 0; fill-rule: nonzero; opacity: 1;" vector-effect="non-scaling-stroke"  transform=" translate(0, 0)" d="M 0 0" stroke-linecap="round" />
</g>
<g transform="matrix(1 0 0 1 129.7861573973 129.0804459696)" id="5Qt2izaktzAXvRwnJb6vk"  >
<path style="stroke: rgb(64,224,208); stroke-width: 2; stroke-dasharray: none; stroke-linecap: butt; stroke-dashoffset: 0; stroke-linejoin: miter; stroke-miterlimit: 4; fill: rgb(255,255,255); fill-opacity: 0; fill-rule: nonzero; opacity: 1;" vector-effect="non-scaling-stroke"  transform=" translate(0, 0)" d="M -28.55028 -2.47049 C -28.55028 -2.47049 -24.43738 2.6211900000000004 -8.182500000000001 3.0113000000000003 C 8.072379999999999 3.4014200000000003 22.24663 23.947580000000002 25.757679999999997 29.79934 C 29.268729999999998 35.6511 30.959239999999998 5.35201 21.596429999999998 -4.53096 C 12.233619999999998 -14.413920000000001 8.639089999999998 -27.8122 -22.31019 -30.543020000000002" stroke-linecap="round" />
</g>
<g transform="matrix(1 0 0 1 74.4265422642 181.4504881467)" id="5naDzh8EhBhRgQF86XT5z"  >
<path style="stroke: rgb(64,224,208); stroke-width: 2; stroke-dasharray: none; stroke-linecap: butt; stroke-dashoffset: 0; stroke-linejoin: miter; stroke-miterlimit: 4; fill: rgb(255,255,255); fill-opacity: 0; fill-rule: nonzero; opacity: 1;" vector-effect="non-scaling-stroke"  transform=" translate(0, 0)" d="M -47.15059 -15.7081 C -47.15059 -15.7081 -2.862720000000003 54.97837 47.15059 -15.7081" stroke-linecap="round" />
</g>
<g transform="matrix(1 0 0 1 61.5892426689 196.8828941309)" id="QGooRwDqrIkNnbdoORtvg"  >
<path style="stroke: rgb(64,224,208); stroke-width: 2; stroke-dasharray: none; stroke-linecap: butt; stroke-dashoffset: 0; stroke-linejoin: miter; stroke-miterlimit: 4; fill: rgb(255,255,255); fill-opacity: 0; fill-rule: nonzero; opacity: 1;" vector-effect="non-scaling-stroke"  transform=" translate(0, 0)" d="M -34.81329 -30.97962 C -34.81329 -30.97962 -40.831810000000004 -16.19961 -34.81329 0.7757000000000005 C -28.794770000000003 17.75101 -3.5327600000000032 29.05124 4.8005700000000004 30.594450000000002 C 13.1339 32.137660000000004 27.61164 28.89692 37.48818 23.49568" stroke-linecap="round" />
</g>
<g transform="matrix(1 0 0 1 111.1353680882 193.3110083525)" id="5REtikC-4pMXHo2ENMF_p"  >
<path style="stroke: rgb(64,224,208); stroke-width: 2; stroke-dasharray: none; stroke-linecap: butt; stroke-dashoffset: 0; stroke-linejoin: miter; stroke-miterlimit: 4; fill: rgb(255,255,255); fill-opacity: 0; fill-rule: nonzero; opacity: 1;" vector-effect="non-scaling-stroke"  transform=" translate(0, 0)" d="M -12.34952 27.30009 C -12.34952 27.30009 7.5023800000000005 9.071370000000002 10.94176 -3.3963800000000006 C 14.38114 -15.86414 10.43637 -27.30008 10.43637 -27.30008" stroke-linecap="round" />
</g>
<g transform="matrix(1 0 0 1 73.9966998597 171.600145003)" id="MBA6iupZezKe04MZ3UZOL"  >
<path style="stroke: rgb(64,224,208); stroke-width: 2; stroke-dasharray: none; stroke-linecap: butt; stroke-dashoffset: 0; stroke-linejoin: miter; stroke-miterlimit: 4; fill: none; fill-rule: nonzero; opacity: 1;" vector-effect="non-scaling-stroke"  transform=" translate(-15.4772090795, -15.4772090795)" d="M 15.47721 0 C 24.020629999999997 0 30.95442 6.93379 30.95442 15.47721 C 30.95442 24.020629999999997 24.020629999999997 30.95442 15.47721 30.95442 C 6.93379 30.95442 0 24.020629999999997 0 15.47721 C 0 6.93379 6.93379 0 15.47721 0 z" stroke-linecap="round" />
</g>
</svg>